<svg width="94" height="81" viewBox="0 0 94 81" fill="none" xmlns="http://www.w3.org/2000/svg">
<path d="M43.78 0H49.45L53.014 0.324L56.416 1.134L58.846 1.944L62.734 3.726L65.65 5.508L66.622 6.156L67 6.5L67.27 6.804L68.728 7.776L71.32 10.206L72.94 11.988L73.588 12.96L74.1434 13.608L73.9471 13.3789L73.8657 13.284L74.4794 14L74.1434 13.608L73.588 12.96L75 15L75.694 16.038L76.99 18.306L78.61 21.708L79.582 24.786L80.23 27.54L80.554 31.104V36.45L80.068 40.824L79.096 44.388L78.124 46.98L76.828 49.572L75.532 51.84L75.856 52.488L77.638 54.27L78.448 54.918V55.242L79.096 55.566L80.23 56.7L81.364 57.996L84.28 60.912L85.252 61.722V62.046L85.9 62.37L88.492 65.124L91.084 67.716L91.894 68.364V68.688H92.218L93.352 70.308L93.838 71.766L94 72.414V75.492L93.676 76.95L92.704 78.408L91.894 79.38L90.436 80.352L88.978 80.838L88.33 81H85.414L83.632 80.514L82.174 79.542L65.164 62.532L64.192 62.856L61.6 64.314L59.17 65.448L55.606 66.582L52.852 67.23L48.802 67.554H44.266L40.702 67.23L37.3 66.42L34.384 65.448L31.954 64.314L28.876 62.694L26.932 61.398V61.074L26.284 60.75L25.312 60.102L23.206 58.32L21.586 56.7L19.966 54.594L19.48 53.946V53.622H19.156L17.536 51.192L15.754 47.79L14.782 45.522L13.648 41.796L13.324 40.176L13 36.774V30.78L13.324 27.378L13.972 24.624L14.782 22.032L16.24 18.792L17.698 16.038L18.994 14.094L19.966 12.96L20.614 11.988L22.072 10.368L24.502 7.938L26.122 6.804L28.066 5.346L30.82 3.726L33.574 2.43L35.518 1.62L39.406 0.486L42.322 0.162L43.78 0ZM45.238 2.754L41.998 3.078L39.082 3.726L36.49 4.536L33.25 5.832L30.172 7.452L27.904 9.072L26.122 10.53L24.988 11.826L23.854 12.96L23.044 13.77L21.586 15.552L19.804 18.306L18.346 21.384L17.212 24.462L16.402 27.378L15.916 30.456L15.754 32.238V35.154L16.078 38.232L16.564 40.824L17.536 43.902L18.832 47.142L20.452 50.22L22.072 52.488L23.692 54.432L24.502 55.242L25.96 56.538L26.77 57.348L28.552 58.806L30.982 60.426L33.574 61.722L36.814 63.018L40.216 63.99L43.132 64.476L44.59 64.638H48.478L51.394 64.314L53.824 63.828L57.064 62.856L60.142 61.56L62.734 60.264L65.326 58.482L67.108 57.024L67.432 56.376L68.242 56.052L69.376 54.594L70.51 53.622L72.292 51.192L73.588 49.086L74.884 46.494L75.856 44.064L76.666 41.472L77.314 38.718L77.638 36.126V31.266L77.152 27.864L76.18 24.138L74.722 20.574L73.426 17.982L71.806 15.552L70.024 13.284L69.214 12.474L68 11.5L67.5 11L67.108 10.368L64.678 8.424L62.086 6.804L58.684 5.184L56.092 4.212L52.366 3.24L48.64 2.754H45.238ZM73.426 54.432L72.94 55.242L71.158 57.186L68.89 59.454L67.918 60.264L67.432 60.588L69.538 62.532L70.996 63.99L72.13 63.018L76.99 58.158L76.018 57.024L74.236 55.242L73.426 54.432ZM79.096 60.264L78.448 60.75V61.074L77.8 61.398L75.856 63.342V63.666L75.208 63.99L74.398 64.8L73.264 65.934L73.588 66.744L74.722 67.878L76.018 69.012L80.068 73.062L81.202 74.358L83.146 76.14L84.766 77.598L85.9 78.084L87.034 78.246L88.492 77.922L90.112 76.788L90.922 75.492L91.246 73.71L90.76 72.09L89.788 70.794L87.844 68.85L86.71 67.554L84.766 65.772L81.04 62.046L79.906 60.75L79.096 60.264Z" fill="black"/>
<path d="M43.78 0H49.45L53.014 0.324L56.416 1.134L58.846 1.944L62.734 3.726L65.65 5.508L66.622 6.156L67 6.5L67.27 6.804L68.728 7.776L71.32 10.206L72.94 11.988L73.588 12.96L74.1434 13.608L73.9471 13.3789L73.8657 13.284L74.4794 14L74.1434 13.608L73.588 12.96L75 15L75.694 16.038L76.99 18.306L78.61 21.708L79.582 24.786L80.23 27.54L80.554 31.104V36.45L80.068 40.824L79.096 44.388L78.124 46.98L76.828 49.572L75.532 51.84L75.856 52.488L77.638 54.27L78.448 54.918V55.242L79.096 55.566L80.23 56.7L81.364 57.996L84.28 60.912L85.252 61.722V62.046L85.9 62.37L88.492 65.124L91.084 67.716L91.894 68.364V68.688H92.218L93.352 70.308L93.838 71.766L94 72.414V75.492L93.676 76.95L92.704 78.408L91.894 79.38L90.436 80.352L88.978 80.838L88.33 81H85.414L83.632 80.514L82.174 79.542L65.164 62.532L64.192 62.856L61.6 64.314L59.17 65.448L55.606 66.582L52.852 67.23L48.802 67.554H44.266L40.702 67.23L37.3 66.42L34.384 65.448L31.954 64.314L28.876 62.694L26.932 61.398V61.074L26.284 60.75L25.312 60.102L23.206 58.32L21.586 56.7L19.966 54.594L19.48 53.946V53.622H19.156L17.536 51.192L15.754 47.79L14.782 45.522L13.648 41.796L13.324 40.176L13 36.774V30.78L13.324 27.378L13.972 24.624L14.782 22.032L16.24 18.792L17.698 16.038L18.994 14.094L19.966 12.96L20.614 11.988L22.072 10.368L24.502 7.938L26.122 6.804L28.066 5.346L30.82 3.726L33.574 2.43L35.518 1.62L39.406 0.486L42.322 0.162L43.78 0ZM45.238 2.754L41.998 3.078L39.082 3.726L36.49 4.536L33.25 5.832L30.172 7.452L27.904 9.072L26.122 10.53L24.988 11.826L23.854 12.96L23.044 13.77L21.586 15.552L19.804 18.306L18.346 21.384L17.212 24.462L16.402 27.378L15.916 30.456L15.754 32.238V35.154L16.078 38.232L16.564 40.824L17.536 43.902L18.832 47.142L20.452 50.22L22.072 52.488L23.692 54.432L24.502 55.242L25.96 56.538L26.77 57.348L28.552 58.806L30.982 60.426L33.574 61.722L36.814 63.018L40.216 63.99L43.132 64.476L44.59 64.638H48.478L51.394 64.314L53.824 63.828L57.064 62.856L60.142 61.56L62.734 60.264L65.326 58.482L67.108 57.024L67.432 56.376L68.242 56.052L69.376 54.594L70.51 53.622L72.292 51.192L73.588 49.086L74.884 46.494L75.856 44.064L76.666 41.472L77.314 38.718L77.638 36.126V31.266L77.152 27.864L76.18 24.138L74.722 20.574L73.426 17.982L71.806 15.552L70.024 13.284L69.214 12.474L68 11.5L67.5 11L67.108 10.368L64.678 8.424L62.086 6.804L58.684 5.184L56.092 4.212L52.366 3.24L48.64 2.754H45.238ZM73.426 54.432L72.94 55.242L71.158 57.186L68.89 59.454L67.918 60.264L67.432 60.588L69.538 62.532L70.996 63.99L72.13 63.018L76.99 58.158L76.018 57.024L74.236 55.242L73.426 54.432ZM79.096 60.264L78.448 60.75V61.074L77.8 61.398L75.856 63.342V63.666L75.208 63.99L74.398 64.8L73.264 65.934L73.588 66.744L74.722 67.878L76.018 69.012L80.068 73.062L81.202 74.358L83.146 76.14L84.766 77.598L85.9 78.084L87.034 78.246L88.492 77.922L90.112 76.788L90.922 75.492L91.246 73.71L90.76 72.09L89.788 70.794L87.844 68.85L86.71 67.554L84.766 65.772L81.04 62.046L79.906 60.75L79.096 60.264Z" fill="url(#paint0_linear_1_10598)"/>
<path d="M44.2659 5.34375H49.1259L52.6899 5.82975L55.6059 6.63975L56.4159 6.96375L57.7119 7.28775L60.3039 8.58375L63.2199 10.3657L65.4879 12.1477L68.7279 15.3877L70.8339 18.3038L72.4539 21.2198L73.2639 22.8398L74.7219 28.0238L75.2079 31.9118V35.6378L74.7219 39.5257L73.5879 43.4137L73.1019 45.0337L71.8059 47.6258L70.0239 50.3797L68.7279 51.9997L67.2699 53.6198H66.9459V53.9437H66.6219L66.2979 54.5918L64.5159 56.2118L62.4099 57.6698L59.9799 59.1278L57.2259 60.4238L53.1759 61.5578L50.4219 62.0438L48.3159 62.2057H45.2379L42.1599 61.8818L39.8919 61.3958L35.8419 60.2617L34.5459 59.6138L32.9259 58.8037L30.1719 57.0218L27.9039 55.2397L24.9879 52.3237L23.0439 49.7318L21.2619 46.6538L20.2899 44.7098L18.8319 39.6878L18.3459 35.9618V31.5877L18.8319 27.8617L19.8039 24.4597L20.4519 22.3538L21.9099 19.5998L23.3679 17.3317L24.9879 15.2257L26.1219 13.9298L27.4179 12.7958L28.5519 11.6617L31.3059 9.71775L33.4119 8.42175L36.1659 7.12575L40.3779 5.99175L42.8079 5.50575L44.2659 5.34375ZM44.5899 8.25975L41.5119 8.74575L39.7299 9.23175L36.1659 10.5278L33.2499 12.1477L31.3059 13.4438L28.8759 15.5498L27.7419 16.6838L26.1219 18.7898L24.6639 21.0577L23.3679 23.6497L22.2339 26.7278L21.9099 28.1858H26.6079L27.5799 26.2418L28.8759 25.1077L30.3339 24.4597L31.3059 24.2978H32.6019L34.2219 24.7838L35.5179 25.5938L36.6519 26.8897L37.2999 28.3477V30.7778L36.8139 32.5597L39.2439 34.9897L40.0539 35.7997L42.6459 38.3918L44.1039 37.9058L45.5619 37.7438L47.1819 38.0677L48.1539 38.3918L52.2039 34.3417L53.4999 33.2078L55.2819 31.2638L56.7399 29.8057L56.2539 28.1858V25.7558L57.0639 23.8118L57.5499 23.3258V23.0018L58.1979 22.6777L59.1699 22.0298L60.9519 21.5438H62.4099L64.0299 22.0298L64.6779 21.8678L65.8119 20.7338L67.1079 19.5998L67.4319 19.2758L67.2699 18.6278L66.1359 17.1698L64.3539 15.2257L63.0579 14.0918L60.7899 12.4718L58.0359 10.8517L54.7959 9.55575L52.0419 8.74575L48.9639 8.25975H44.5899ZM68.8899 21.7057L66.6219 23.9737L66.7839 25.4317L66.9459 26.2418V27.6998L66.2979 29.9678L65.1639 31.2638L63.8679 32.0737L62.8959 32.3978H60.4659L58.8459 31.9118L57.5499 33.2078L56.2539 34.3417L53.1759 37.4198L52.0419 38.7158L50.7459 40.0117L50.2599 40.3358L50.7459 41.7938V44.5477L49.9359 46.4917L48.3159 47.7878L46.8579 48.4357L45.0759 48.5978L43.4559 48.2738L41.9979 47.4637L41.1879 46.6538L40.5399 45.8438L40.0539 43.5757L40.2159 41.6318L40.5399 40.4977L39.7299 39.6878L34.5459 34.5037L33.0879 34.9897H30.6579L29.0379 34.3417L27.9039 33.5317L27.0939 32.3978L26.7699 31.2638H21.4239L21.2619 31.9118V35.6378L21.7479 39.0397L22.7199 42.2798L23.8539 44.8717L25.1499 47.3018L27.0939 50.0558L29.1999 52.3237L30.4959 53.4577L32.7639 55.0778L35.3559 56.5358L37.4619 57.5078L40.3779 58.4798L42.4839 58.9658L45.3999 59.2897H48.4779L51.8799 58.8037L54.3099 58.1558L57.5499 56.8597L59.9799 55.5638L61.9239 54.2677L63.5439 52.9717L65.3259 51.3517L66.7839 49.5698L68.4039 47.3018L70.1859 43.8997L71.4819 40.3358L72.1299 36.9338L72.2919 35.6378V32.0737L71.8059 28.5098L70.8339 25.2698L69.6999 22.6777L69.2139 21.7057H68.8899ZM61.1139 24.4597L59.8179 25.1077L59.1699 26.2418V27.6998L59.6559 28.5098L60.4659 29.3197L60.9519 29.4818H62.2479L63.5439 28.6717L64.1919 27.3757L64.0299 26.0798L62.8959 24.7838L62.0859 24.4597H61.1139ZM31.6299 27.0518L30.4959 27.5378L29.5239 28.6717L29.3619 30.1297L30.0099 31.4258L30.8199 32.0737L31.3059 32.2358H32.6019L33.5739 31.7498L34.2219 30.7778L34.3839 30.2917V28.9958L33.4119 27.5378L32.2779 27.0518H31.6299ZM44.7519 40.6598L43.6179 41.3078L42.9699 42.2798L42.8079 43.4137L43.2939 44.7098L44.2659 45.5197L45.5619 45.8438L46.6959 45.5197L47.3439 44.8717L47.8299 43.8997V42.4417L46.8579 40.9837L46.2099 40.6598H44.7519Z" fill="black"/>
<path d="M44.2659 5.34375H49.1259L52.6899 5.82975L55.6059 6.63975L56.4159 6.96375L57.7119 7.28775L60.3039 8.58375L63.2199 10.3657L65.4879 12.1477L68.7279 15.3877L70.8339 18.3038L72.4539 21.2198L73.2639 22.8398L74.7219 28.0238L75.2079 31.9118V35.6378L74.7219 39.5257L73.5879 43.4137L73.1019 45.0337L71.8059 47.6258L70.0239 50.3797L68.7279 51.9997L67.2699 53.6198H66.9459V53.9437H66.6219L66.2979 54.5918L64.5159 56.2118L62.4099 57.6698L59.9799 59.1278L57.2259 60.4238L53.1759 61.5578L50.4219 62.0438L48.3159 62.2057H45.2379L42.1599 61.8818L39.8919 61.3958L35.8419 60.2617L34.5459 59.6138L32.9259 58.8037L30.1719 57.0218L27.9039 55.2397L24.9879 52.3237L23.0439 49.7318L21.2619 46.6538L20.2899 44.7098L18.8319 39.6878L18.3459 35.9618V31.5877L18.8319 27.8617L19.8039 24.4597L20.4519 22.3538L21.9099 19.5998L23.3679 17.3317L24.9879 15.2257L26.1219 13.9298L27.4179 12.7958L28.5519 11.6617L31.3059 9.71775L33.4119 8.42175L36.1659 7.12575L40.3779 5.99175L42.8079 5.50575L44.2659 5.34375ZM44.5899 8.25975L41.5119 8.74575L39.7299 9.23175L36.1659 10.5278L33.2499 12.1477L31.3059 13.4438L28.8759 15.5498L27.7419 16.6838L26.1219 18.7898L24.6639 21.0577L23.3679 23.6497L22.2339 26.7278L21.9099 28.1858H26.6079L27.5799 26.2418L28.8759 25.1077L30.3339 24.4597L31.3059 24.2978H32.6019L34.2219 24.7838L35.5179 25.5938L36.6519 26.8897L37.2999 28.3477V30.7778L36.8139 32.5597L39.2439 34.9897L40.0539 35.7997L42.6459 38.3918L44.1039 37.9058L45.5619 37.7438L47.1819 38.0677L48.1539 38.3918L52.2039 34.3417L53.4999 33.2078L55.2819 31.2638L56.7399 29.8057L56.2539 28.1858V25.7558L57.0639 23.8118L57.5499 23.3258V23.0018L58.1979 22.6777L59.1699 22.0298L60.9519 21.5438H62.4099L64.0299 22.0298L64.6779 21.8678L65.8119 20.7338L67.1079 19.5998L67.4319 19.2758L67.2699 18.6278L66.1359 17.1698L64.3539 15.2257L63.0579 14.0918L60.7899 12.4718L58.0359 10.8517L54.7959 9.55575L52.0419 8.74575L48.9639 8.25975H44.5899ZM68.8899 21.7057L66.6219 23.9737L66.7839 25.4317L66.9459 26.2418V27.6998L66.2979 29.9678L65.1639 31.2638L63.8679 32.0737L62.8959 32.3978H60.4659L58.8459 31.9118L57.5499 33.2078L56.2539 34.3417L53.1759 37.4198L52.0419 38.7158L50.7459 40.0117L50.2599 40.3358L50.7459 41.7938V44.5477L49.9359 46.4917L48.3159 47.7878L46.8579 48.4357L45.0759 48.5978L43.4559 48.2738L41.9979 47.4637L41.1879 46.6538L40.5399 45.8438L40.0539 43.5757L40.2159 41.6318L40.5399 40.4977L39.7299 39.6878L34.5459 34.5037L33.0879 34.9897H30.6579L29.0379 34.3417L27.9039 33.5317L27.0939 32.3978L26.7699 31.2638H21.4239L21.2619 31.9118V35.6378L21.7479 39.0397L22.7199 42.2798L23.8539 44.8717L25.1499 47.3018L27.0939 50.0558L29.1999 52.3237L30.4959 53.4577L32.7639 55.0778L35.3559 56.5358L37.4619 57.5078L40.3779 58.4798L42.4839 58.9658L45.3999 59.2897H48.4779L51.8799 58.8037L54.3099 58.1558L57.5499 56.8597L59.9799 55.5638L61.9239 54.2677L63.5439 52.9717L65.3259 51.3517L66.7839 49.5698L68.4039 47.3018L70.1859 43.8997L71.4819 40.3358L72.1299 36.9338L72.2919 35.6378V32.0737L71.8059 28.5098L70.8339 25.2698L69.6999 22.6777L69.2139 21.7057H68.8899ZM61.1139 24.4597L59.8179 25.1077L59.1699 26.2418V27.6998L59.6559 28.5098L60.4659 29.3197L60.9519 29.4818H62.2479L63.5439 28.6717L64.1919 27.3757L64.0299 26.0798L62.8959 24.7838L62.0859 24.4597H61.1139ZM31.6299 27.0518L30.4959 27.5378L29.5239 28.6717L29.3619 30.1297L30.0099 31.4258L30.8199 32.0737L31.3059 32.2358H32.6019L33.5739 31.7498L34.2219 30.7778L34.3839 30.2917V28.9958L33.4119 27.5378L32.2779 27.0518H31.6299ZM44.7519 40.6598L43.6179 41.3078L42.9699 42.2798L42.8079 43.4137L43.2939 44.7098L44.2659 45.5197L45.5619 45.8438L46.6959 45.5197L47.3439 44.8717L47.8299 43.8997V42.4417L46.8579 40.9837L46.2099 40.6598H44.7519Z" fill="url(#paint1_linear_1_10598)"/>
<path d="M13 30.5H4V47.5" stroke="#B9B9B9"/>
<circle cx="4" cy="31" r="4" fill="#B9B9B9"/>
<circle cx="80" cy="10" r="4" fill="#B9B9B9"/>
<path d="M75.5 14.5L80 10L87 17" stroke="#B9B9B9"/>
<defs>
<linearGradient id="paint0_linear_1_10598" x1="53.5" y1="0" x2="53.5" y2="81" gradientUnits="userSpaceOnUse">
<stop stop-color="#8AFDD6"/>
<stop offset="1" stop-color="#8E8CFE"/>
</linearGradient>
<linearGradient id="paint1_linear_1_10598" x1="46.7769" y1="5.34375" x2="46.7769" y2="62.2057" gradientUnits="userSpaceOnUse">
<stop stop-color="#8AFDD6"/>
<stop offset="1" stop-color="#8E8CFE"/>
</linearGradient>
</defs>
</svg>
