<svg width="88" height="89" viewBox="0 0 88 89" fill="none" xmlns="http://www.w3.org/2000/svg">
<path d="M41.5362 0.460938H46.8163L49.9843 0.988941L52.6243 2.04495L55.2643 3.45295L58.0803 5.74097L60.1924 8.20498L61.6004 10.141L61.7764 10.845L63.1844 9.61299L64.7684 8.20498L66.1764 7.50098L68.2884 6.44497L70.7524 5.74097L72.1604 5.56497H74.8004L77.6165 6.09297L79.9045 6.97297L81.6645 8.02898L82.8965 8.73299L85.1845 11.021L86.7685 13.485L87.6485 15.597L88.0005 17.181L87.8245 18.589L87.2965 19.117H85.8885L85.1845 18.413L84.1285 15.245L82.7205 13.133L81.6645 11.901L80.2565 10.669L77.4405 9.26099L75.6804 8.73299L74.4484 8.55698H72.5124L70.0484 9.08499L67.9364 9.96499L66.0004 11.197L64.4164 12.957L63.5364 14.189L63.8884 16.125L64.2404 18.237V22.4611L63.7124 25.4531L63.5364 26.6851L64.4164 27.5651L65.8244 25.9811L67.0564 25.2771L68.8164 24.7491H69.5204L69.3444 22.9891L68.2884 21.9331L67.5844 20.5251L67.2324 19.117V15.773L67.9364 13.661L69.5204 11.901L71.2804 10.845L73.7444 10.493L75.6804 10.845L77.2645 11.725L78.1445 12.605L79.2005 14.013L79.7285 15.597V19.293L79.0245 21.4051L77.6165 22.9891L77.4405 24.7491L78.6725 24.9251L80.6085 25.6291L82.1925 27.0371L82.7205 27.7411L84.1285 25.4531L85.0085 22.9891L85.5365 22.4611L86.9445 22.2851L87.6485 22.6371L87.8245 24.2211L87.4725 25.8051L86.0645 28.6211L84.1285 30.7331L82.8965 31.9651L80.2565 33.7251L77.9685 34.6051L75.8564 35.1331L73.2164 35.3091L70.2244 34.9571L67.0564 33.9011L65.1204 32.6691L63.3604 31.2611L62.1284 30.0291L61.7764 29.8531L61.4244 30.7331L59.8404 33.0211L58.2563 34.9571L56.3203 36.5411L52.9763 38.4772L49.9843 39.7092H49.6323V50.2692L50.8643 49.9172H53.1523L54.9123 50.6212L56.1443 51.6772L56.6723 52.3812L58.2563 51.8532H61.0724L62.6564 52.3812L64.0644 53.7892L64.5924 54.6693V55.1973L65.8244 54.6693L67.4084 54.4932L69.3444 54.8452L70.9284 55.9013L71.9844 57.1333L72.6884 59.0693V65.9333L72.1604 66.8133L71.9844 66.9893H70.4004L69.6964 66.2853L69.5204 59.4213L68.9924 58.5413L68.1124 57.8373L67.0564 57.6613L65.8244 58.1893L65.2964 58.8933L65.1204 59.4213L64.9444 64.3493L64.2404 65.2293H62.6564L61.9524 64.3493L61.7764 56.4293L61.2484 55.5493V55.1973L60.3684 54.8452H58.7843L57.9043 55.5493L57.5523 56.2533L57.3763 62.9413L56.8483 63.9973L56.4963 64.1733H55.0883L54.3843 63.4693L54.2083 55.0213L53.6803 53.6132L52.6243 52.9092H51.2163L50.1603 53.7892L49.8083 54.6693L49.6323 63.2933L48.9283 64.1733H47.3443L46.6403 63.2933L46.4643 39.1812L45.9363 38.1252L45.0563 37.4212H43.6483L42.5922 38.1252L42.0642 39.3572L41.8882 52.3812L41.3602 53.0852L40.1282 53.2612L39.2482 52.7332L38.8962 52.0292V39.7092L37.3122 39.3572L33.9682 37.7732L31.6802 36.3651L31.5042 36.0131L30.6242 35.4851L28.6882 33.3731L26.9282 30.9091L26.4002 29.8531L25.5201 30.7331L23.2321 32.6691L20.4161 34.2531L18.1281 34.9571L14.4321 35.3091L11.4401 34.9571L8.80005 34.0771L6.33604 32.6691L4.04802 30.7331L2.46401 28.9731L1.40801 27.2131L0.352002 24.3971L0 21.4051V19.293L0.528003 15.773L1.76001 12.957L3.16802 11.021L4.75203 9.26099L6.16004 8.20498L8.97605 6.62097L11.2641 5.91697L13.5521 5.56497H16.0161L19.0081 6.09297L21.6481 7.14898L23.4081 8.20498L25.1681 9.61299L26.2242 10.845L27.6322 8.73299L29.2162 6.97297L29.7442 6.26897H31.3282L32.0322 6.97297V8.20498L30.2722 10.317L29.2162 11.901L28.5122 13.661L27.6322 16.125L27.2802 17.885L27.1042 19.645V21.2291L27.4562 23.8691L28.6882 27.5651L29.9202 30.0291L30.8002 30.9091L31.6802 31.7891L31.8562 30.9091L32.2082 30.2051H32.5602L32.9122 29.5011L34.4962 28.2691L36.4322 27.5651L38.7202 26.8611H39.0722L38.8962 23.6931L37.6642 22.4611L36.6082 20.3491L36.0802 17.885V14.717L36.4322 12.957L37.3122 10.669L38.7202 9.08499L39.9522 8.20498L42.2402 7.50098L43.4723 7.32498H44.8803L47.1683 7.85298L48.7523 8.55698L49.1043 8.73299V9.08499L49.8083 9.43699L51.0403 10.845L51.9203 13.133L52.0963 13.837V18.765L51.3923 21.0531L50.1603 22.9891L49.2803 23.8691L49.1043 26.8611L51.9203 27.5651L54.0323 28.4451L55.4403 29.6771L56.3203 30.7331L56.8483 31.7891L58.7843 29.3251L60.1924 25.9811L60.8964 23.3411L61.0724 22.4611V18.413L60.3684 15.245L59.4883 13.133L58.2563 10.669L56.6723 8.73299L55.0883 7.32498L53.3283 6.09297L50.8643 4.68496L48.2243 3.80496L46.4643 3.45295L44.0003 3.27695L40.8322 3.62896L37.8402 4.50896L36.0802 5.38897H34.6722L33.9682 4.68496V3.27695L34.8482 2.39695L37.3122 1.34094L38.8962 0.81294L41.5362 0.460938ZM13.7281 8.38098L11.2641 8.90899L9.15205 9.78899L7.04004 11.197L5.80803 12.605L4.04802 15.069L3.16802 17.533L2.81602 19.645L2.99202 22.6371L4.04802 25.4531L5.28003 27.5651L5.80803 27.7411L6.86404 26.3331L8.27205 25.4531L10.7361 24.7491V22.8131L10.2081 22.6371L10.0321 22.1091H9.68006L9.50406 21.4051L8.80005 19.645L8.62405 16.829L8.97605 14.717L9.68006 13.309L10.7361 12.077L12.1441 11.197L13.2001 10.845L14.9601 10.669L16.8961 11.021L18.3041 11.725L19.5361 12.781L20.4161 14.189L20.7681 15.245L20.9441 16.477V18.237L20.5921 20.3491L19.8881 21.7571V22.1091L19.3601 22.2851L18.8321 22.8131V24.7491L21.6481 25.6291L23.2321 26.8611L23.7601 27.7411L24.2881 27.5651L24.9921 26.3331L24.2881 23.1651L24.1121 21.2291V19.469L24.4641 16.477L24.9921 14.365L23.5841 12.429L21.8241 10.669L19.7121 9.43699L17.7761 8.73299L15.6641 8.38098H13.7281ZM43.6483 10.141L41.8882 10.669L40.3042 11.901L39.4242 13.133L38.8962 14.893V17.533L39.2482 19.117L40.3042 20.8771L41.8882 22.2851L42.7682 22.8131L44.7043 22.9891L46.1123 22.4611L47.6963 21.2291L48.7523 19.645L49.2803 18.237V14.365L48.5763 12.781L47.3443 11.373L45.9363 10.493L44.5283 10.141H43.6483ZM14.4321 13.485L13.2001 14.013L12.1441 14.717L11.6161 15.773L11.4401 16.653V18.061L11.7921 19.645L12.6721 20.8771L14.2561 21.9331L15.4881 21.7571L17.0721 20.7011L17.7761 19.645L18.1281 18.061V16.653L17.6001 15.069L16.8961 14.189L15.6641 13.661L14.4321 13.485ZM73.2164 13.485L71.9844 13.837L70.7524 14.893L70.2244 16.125V18.765L71.1044 20.5251L72.1604 21.4051L73.0404 21.9331L74.2724 21.7571L75.6804 20.7011L76.5604 19.469L76.7365 18.765V15.949L75.8564 14.541L74.9764 13.837L73.2164 13.485ZM13.7281 24.5731L13.5521 26.1571L14.0801 26.5091H15.4881L16.0161 25.9811L15.8401 24.5731H13.7281ZM72.5124 24.7491L72.3364 26.1571L73.5684 26.6851L74.6244 26.1571L74.4484 24.7491H72.5124ZM42.0642 25.6291L41.8882 27.9171L41.7122 28.6211L42.9443 29.5011L43.4723 29.6771H44.8803L46.2883 28.7971L46.4643 28.0931L46.1123 25.6291L44.8803 25.8051H43.2963L42.0642 25.6291ZM10.7361 27.7411L8.80005 28.4451L8.09605 29.3251V30.2051L10.9121 31.6131L12.8481 32.1411L15.1361 32.3171L17.6001 31.9651L19.8881 31.0851L21.4721 30.2051V29.3251L20.7681 28.4451L18.8321 27.7411L18.1281 28.0931L17.0721 28.9731L16.0161 29.3251H13.5521L11.9681 28.6211L11.0881 27.7411H10.7361ZM69.3444 27.7411L67.7604 28.2691L66.7044 29.5011V30.2051L69.1684 31.4371L70.7524 31.9651L73.7444 32.3171L76.2084 31.9651L78.3205 31.2611L80.2565 30.2051L80.0805 29.1491L78.8485 28.0931L77.2645 27.7411L76.0324 28.7971L74.8004 29.3251H72.1604L70.4004 28.4451L69.6964 27.7411H69.3444ZM38.7202 29.8531L36.2562 30.5571L34.8482 31.7891L34.3202 32.8451V34.4291L35.9042 35.4851L38.0162 36.5411L39.0722 36.8931L39.9522 36.7171L40.8322 35.6611L42.4162 34.7811L42.9443 34.6051H45.5843L46.9923 35.1331L48.5763 36.5411L48.7523 36.8931L50.3363 36.5411L52.4483 35.4851L54.0323 34.4291V33.1971L53.3283 31.7891L52.0963 30.7331L50.1603 30.0291L49.1043 29.8531L47.8723 31.2611L46.1123 32.1411L45.2323 32.3171H42.9443L41.0082 31.6131L39.6002 30.5571L39.0722 29.8531H38.7202Z" fill="url(#paint0_linear_1_10272)"/>
<path d="M39.7763 56.4258H41.1843L41.8883 57.1298V73.8499L41.0083 74.7299H39.9523L39.0723 74.0259L38.8963 73.4979L38.7203 68.2178L37.6643 69.4499L36.9603 71.0339L36.7843 71.7379V78.6019L37.3123 81.0659L38.3683 83.1779L40.1283 85.4659L41.0083 86.346V87.93L40.4803 88.458H38.7203L37.6643 87.402V87.05L37.1363 86.874L35.5522 84.4099L34.6722 82.6499L33.9682 80.3619L33.7922 79.1299V71.3859L34.3202 69.2739L35.2002 67.5138L36.0802 66.6338L37.1363 65.4018L38.7203 64.3458L38.8963 57.4818L39.4243 56.6018L39.7763 56.4258Z" fill="url(#paint1_linear_1_10272)"/>
<path d="M70.9284 70.1562L72.1604 70.5083L72.5124 70.8603L72.6884 71.5643V74.0283L72.3364 76.4923L71.4564 79.4843L70.4004 81.5963L68.9924 84.4123L68.1124 87.2283L67.7604 88.1084L67.2324 88.4604H65.8244L65.1204 87.7564V86.5243L66.0004 83.5323L66.8804 81.4203L68.2884 78.6043L69.1684 75.9643L69.5204 74.0283L69.6964 71.0363L70.2244 70.3323L70.9284 70.1562Z" fill="url(#paint2_linear_1_10272)"/>
<defs>
<linearGradient id="paint0_linear_1_10272" x1="44.0003" y1="0.460937" x2="44.0003" y2="66.9893" gradientUnits="userSpaceOnUse">
<stop stop-color="#8AFDD6"/>
<stop offset="1" stop-color="#8E8CFE"/>
</linearGradient>
<linearGradient id="paint1_linear_1_10272" x1="37.8403" y1="56.4258" x2="37.8403" y2="88.458" gradientUnits="userSpaceOnUse">
<stop stop-color="#8AFDD6"/>
<stop offset="1" stop-color="#8E8CFE"/>
</linearGradient>
<linearGradient id="paint2_linear_1_10272" x1="68.9044" y1="70.1562" x2="68.9044" y2="88.4604" gradientUnits="userSpaceOnUse">
<stop stop-color="#8AFDD6"/>
<stop offset="1" stop-color="#8E8CFE"/>
</linearGradient>
</defs>
</svg>
