<svg width="68" height="69" viewBox="0 0 68 69" fill="none" xmlns="http://www.w3.org/2000/svg">
<path d="M61.5786 0.972656L62.8958 1.13731L63.2251 1.4666V5.74748H67.3413L67.8353 6.07677L67.9999 7.55861L67.506 8.38186L61.7433 14.1446L61.0847 14.6385H59.7675L58.2856 13.3213L57.627 13.6506L55.4866 15.6264L54.3341 16.779L53.1815 18.0961L51.0411 20.2366L52.3583 20.4012L53.5108 21.7184L54.828 24.0235L56.1452 26.8225L56.9685 29.2923L57.627 32.5852L57.7917 34.7257V36.5368L57.4624 39.8298L56.8038 42.6288L55.6513 45.7572L54.3341 48.2269L53.5108 49.7087L51.3704 52.3431L49.3946 54.3189L48.0774 55.3068L47.0895 55.9654L45.2784 57.1179L41.8208 58.7644L39.1864 59.5877L36.552 60.0816L34.7408 60.2463H31.7772L28.9781 59.917L25.6852 59.0937L22.3922 57.7765L20.581 56.7886L20.2517 56.2947V54.8129L20.581 54.3189L21.7336 54.1543L25.1912 55.8007L28.8135 56.7886L30.7893 57.1179H35.7287L39.0217 56.4593L41.6561 55.6361L45.1137 53.825L47.2542 52.1785L47.7481 51.6845H48.0774L48.4067 51.0259L48.9007 50.8613L49.23 50.038L50.5471 48.7208L52.1936 46.0865L53.5108 43.2874L54.3341 40.653L54.6634 39.1712V32.256L53.8401 28.963L53.0169 26.9872L51.535 24.1882L50.2178 22.377V21.0598L48.9007 22.2124L47.4188 23.6942L46.2663 25.0114L43.4672 27.8104L42.15 28.963L40.6682 30.4448L39.5157 31.762L38.3631 32.9145L38.6924 34.561V36.3722L38.1985 38.0187L37.2106 39.3359L36.058 40.3237L34.4116 40.9823H32.1065L30.2953 40.3237L28.6488 38.8419L27.8256 37.1954L27.6609 36.3722V34.7257L28.1549 33.0792L28.8135 32.0913L29.6367 31.2681L30.7893 30.4448L32.7651 29.9509L34.5762 30.1155L36.2227 30.6095L38.1985 28.6337L39.5157 27.4811L40.9975 25.9993L42.15 24.6821L45.1137 21.7184L46.4309 20.5659L47.9128 19.084V18.9194H46.9249L44.4551 17.2729L41.6561 15.7911L39.5157 14.9678L36.552 14.3092H29.966L27.167 14.9678L23.874 16.285L21.2396 17.7668L20.0871 18.5901L19.4285 19.2487L18.6053 20.0719L17.9467 20.4012L17.6174 21.0598L16.6295 21.8831L14.8183 24.5175L13.3365 27.3165L12.3486 30.6095L11.8546 33.4085V38.0187L12.3486 40.8177L13.3365 44.1107L14.6537 46.7451L16.3002 49.2148V50.2027L15.4769 51.0259H14.3244L13.5011 50.2027L12.5132 48.7208V48.3915H12.1839L10.8668 45.7572L9.87886 43.2874L9.22027 40.8177L8.89097 38.8419L8.72632 36.8661V34.561L9.05562 31.5974L9.71421 28.6337L11.0314 25.3407L12.3486 22.871L13.3365 21.5538L14.3244 20.0719L16.3002 17.9315L18.6053 15.9557L20.7457 14.6385L23.2154 13.3213L25.8498 12.3334L29.1428 11.5102L30.46 11.3455H36.058L39.0217 11.8395L42.4793 12.992L45.2784 14.3092L47.4188 15.6264L48.736 16.779L48.9007 17.9315L52.029 14.8032L53.3462 13.6506L54.6634 12.3334L55.8159 11.0162L54.828 9.8637L54.3341 9.04045V8.05256L55.322 6.73537H55.6513L55.9806 6.07677L60.92 1.13731L61.5786 0.972656ZM60.4261 5.74748L59.2735 7.06467L57.9563 8.21721V8.8758L60.2614 11.1809L60.92 10.8516L61.7433 10.0283V9.69905L62.4019 9.36975L63.0605 8.38186L61.414 8.21721L60.7554 7.55861L60.5907 5.74748H60.4261ZM32.4358 32.9145L31.4479 33.5731L30.7893 34.3964L30.46 35.5489L30.9539 36.8661L31.7772 37.6894L32.7651 38.1833L34.2469 38.0187L35.2348 37.1954L35.7287 36.3722L35.8934 35.2196L34.5762 36.2075L33.753 36.3722L32.9297 36.0429L32.7651 35.7136V34.561L33.9176 33.2438L34.0823 32.9145H32.4358Z" fill="black"/>
<path d="M61.5786 0.972656L62.8958 1.13731L63.2251 1.4666V5.74748H67.3413L67.8353 6.07677L67.9999 7.55861L67.506 8.38186L61.7433 14.1446L61.0847 14.6385H59.7675L58.2856 13.3213L57.627 13.6506L55.4866 15.6264L54.3341 16.779L53.1815 18.0961L51.0411 20.2366L52.3583 20.4012L53.5108 21.7184L54.828 24.0235L56.1452 26.8225L56.9685 29.2923L57.627 32.5852L57.7917 34.7257V36.5368L57.4624 39.8298L56.8038 42.6288L55.6513 45.7572L54.3341 48.2269L53.5108 49.7087L51.3704 52.3431L49.3946 54.3189L48.0774 55.3068L47.0895 55.9654L45.2784 57.1179L41.8208 58.7644L39.1864 59.5877L36.552 60.0816L34.7408 60.2463H31.7772L28.9781 59.917L25.6852 59.0937L22.3922 57.7765L20.581 56.7886L20.2517 56.2947V54.8129L20.581 54.3189L21.7336 54.1543L25.1912 55.8007L28.8135 56.7886L30.7893 57.1179H35.7287L39.0217 56.4593L41.6561 55.6361L45.1137 53.825L47.2542 52.1785L47.7481 51.6845H48.0774L48.4067 51.0259L48.9007 50.8613L49.23 50.038L50.5471 48.7208L52.1936 46.0865L53.5108 43.2874L54.3341 40.653L54.6634 39.1712V32.256L53.8401 28.963L53.0169 26.9872L51.535 24.1882L50.2178 22.377V21.0598L48.9007 22.2124L47.4188 23.6942L46.2663 25.0114L43.4672 27.8104L42.15 28.963L40.6682 30.4448L39.5157 31.762L38.3631 32.9145L38.6924 34.561V36.3722L38.1985 38.0187L37.2106 39.3359L36.058 40.3237L34.4116 40.9823H32.1065L30.2953 40.3237L28.6488 38.8419L27.8256 37.1954L27.6609 36.3722V34.7257L28.1549 33.0792L28.8135 32.0913L29.6367 31.2681L30.7893 30.4448L32.7651 29.9509L34.5762 30.1155L36.2227 30.6095L38.1985 28.6337L39.5157 27.4811L40.9975 25.9993L42.15 24.6821L45.1137 21.7184L46.4309 20.5659L47.9128 19.084V18.9194H46.9249L44.4551 17.2729L41.6561 15.7911L39.5157 14.9678L36.552 14.3092H29.966L27.167 14.9678L23.874 16.285L21.2396 17.7668L20.0871 18.5901L19.4285 19.2487L18.6053 20.0719L17.9467 20.4012L17.6174 21.0598L16.6295 21.8831L14.8183 24.5175L13.3365 27.3165L12.3486 30.6095L11.8546 33.4085V38.0187L12.3486 40.8177L13.3365 44.1107L14.6537 46.7451L16.3002 49.2148V50.2027L15.4769 51.0259H14.3244L13.5011 50.2027L12.5132 48.7208V48.3915H12.1839L10.8668 45.7572L9.87886 43.2874L9.22027 40.8177L8.89097 38.8419L8.72632 36.8661V34.561L9.05562 31.5974L9.71421 28.6337L11.0314 25.3407L12.3486 22.871L13.3365 21.5538L14.3244 20.0719L16.3002 17.9315L18.6053 15.9557L20.7457 14.6385L23.2154 13.3213L25.8498 12.3334L29.1428 11.5102L30.46 11.3455H36.058L39.0217 11.8395L42.4793 12.992L45.2784 14.3092L47.4188 15.6264L48.736 16.779L48.9007 17.9315L52.029 14.8032L53.3462 13.6506L54.6634 12.3334L55.8159 11.0162L54.828 9.8637L54.3341 9.04045V8.05256L55.322 6.73537H55.6513L55.9806 6.07677L60.92 1.13731L61.5786 0.972656ZM60.4261 5.74748L59.2735 7.06467L57.9563 8.21721V8.8758L60.2614 11.1809L60.92 10.8516L61.7433 10.0283V9.69905L62.4019 9.36975L63.0605 8.38186L61.414 8.21721L60.7554 7.55861L60.5907 5.74748H60.4261ZM32.4358 32.9145L31.4479 33.5731L30.7893 34.3964L30.46 35.5489L30.9539 36.8661L31.7772 37.6894L32.7651 38.1833L34.2469 38.0187L35.2348 37.1954L35.7287 36.3722L35.8934 35.2196L34.5762 36.2075L33.753 36.3722L32.9297 36.0429L32.7651 35.7136V34.561L33.9176 33.2438L34.0823 32.9145H32.4358Z" fill="url(#paint0_linear_1_14547)"/>
<path d="M5.92736 17.2734L7.0799 17.4381L7.57385 18.0967V19.4139L6.25666 21.5543L5.59806 23.2008L4.28087 26.6584L3.45763 29.7868L2.96368 33.0797V38.3485L3.45763 41.8061L4.61017 45.7577L5.92736 48.886L7.24455 51.5204L9.05569 54.1548L10.3729 55.8013L11.1961 56.4599L11.8547 57.2831L13.0073 58.271L13.8305 59.0943L15.477 60.4115L17.7821 61.8933L20.4165 63.2105L22.7216 64.1984L25.8499 65.1863L28.9782 65.8449L30.4601 66.0095H36.0581L39.3511 65.5156L41.8208 64.857L45.1138 63.7044L46.7603 62.8812L48.0775 62.3872L51.0412 60.4115L53.3462 58.6003L54.8281 57.1185H55.1574L55.4867 56.4599L56.9685 54.8134L58.615 52.5083L59.109 52.179H60.4262L61.0848 52.8376V54.1548L59.6029 56.2952L57.4625 58.765L55.6513 60.5761L53.8402 62.0579L51.2058 63.8691L48.5714 65.3509L45.937 66.6681L41.4915 68.15L38.1986 68.8085L36.8814 68.9732H29.4722L25.0266 68.15L20.5811 66.6681L16.6295 64.6923L14.3245 63.2105L13.0073 62.2226L11.3608 60.9054L9.38499 59.0943L7.4092 56.9538L6.42131 55.472L5.10412 53.6609L3.45763 50.6972L1.97579 47.5688L0.987894 44.4405L0.164649 40.4889L0 39.3364V32.2565L0.658596 28.3049L1.64649 24.8473L2.79903 21.8836L4.61017 18.5906L5.43341 17.4381L5.92736 17.2734Z" fill="black"/>
<path d="M5.92736 17.2734L7.0799 17.4381L7.57385 18.0967V19.4139L6.25666 21.5543L5.59806 23.2008L4.28087 26.6584L3.45763 29.7868L2.96368 33.0797V38.3485L3.45763 41.8061L4.61017 45.7577L5.92736 48.886L7.24455 51.5204L9.05569 54.1548L10.3729 55.8013L11.1961 56.4599L11.8547 57.2831L13.0073 58.271L13.8305 59.0943L15.477 60.4115L17.7821 61.8933L20.4165 63.2105L22.7216 64.1984L25.8499 65.1863L28.9782 65.8449L30.4601 66.0095H36.0581L39.3511 65.5156L41.8208 64.857L45.1138 63.7044L46.7603 62.8812L48.0775 62.3872L51.0412 60.4115L53.3462 58.6003L54.8281 57.1185H55.1574L55.4867 56.4599L56.9685 54.8134L58.615 52.5083L59.109 52.179H60.4262L61.0848 52.8376V54.1548L59.6029 56.2952L57.4625 58.765L55.6513 60.5761L53.8402 62.0579L51.2058 63.8691L48.5714 65.3509L45.937 66.6681L41.4915 68.15L38.1986 68.8085L36.8814 68.9732H29.4722L25.0266 68.15L20.5811 66.6681L16.6295 64.6923L14.3245 63.2105L13.0073 62.2226L11.3608 60.9054L9.38499 59.0943L7.4092 56.9538L6.42131 55.472L5.10412 53.6609L3.45763 50.6972L1.97579 47.5688L0.987894 44.4405L0.164649 40.4889L0 39.3364V32.2565L0.658596 28.3049L1.64649 24.8473L2.79903 21.8836L4.61017 18.5906L5.43341 17.4381L5.92736 17.2734Z" fill="url(#paint1_linear_1_14547)"/>
<path d="M31.4478 20.2383H35.0701L37.5399 20.7322L40.3389 21.7201L41.3268 22.3787L41.4914 22.708V23.8606L40.6682 24.6838H39.5156L37.3752 23.6959L35.3994 23.202L34.2469 23.0373H32.2711L29.6367 23.5313L27.0023 24.6838H26.673V25.0131L25.0265 26.1656L23.0507 28.1414L21.7336 30.4465L20.9103 32.587L20.581 34.3981V37.0325L21.075 39.3376L22.0629 41.8073L23.5447 43.7831L24.3679 44.771L26.673 46.5821L28.9781 47.7347L31.7771 48.3932H34.7408L37.3752 47.7347L39.351 46.9114L40.9975 45.7589L41.6561 45.1003H41.9854V44.771H42.3147L42.644 44.1124L44.1258 42.3012L45.1137 40.3254L45.7723 38.0204L45.9369 36.8678V34.5627L45.443 32.093L44.6198 30.1172L44.1258 28.9647L44.2905 27.9768L44.7844 27.4828L45.9369 27.3182L46.7602 27.8121L47.7481 29.7879L48.5713 32.587L48.736 33.7395V37.6911L48.242 40.1608L47.2541 42.9598L46.1016 44.771L44.6198 46.5821L42.8086 48.2286L40.5035 49.5458L39.1863 50.2044L36.552 51.0276L35.5641 51.1923H30.9539L28.1549 50.5337L25.5205 49.2165L23.5447 48.0639L21.5689 46.2528L20.581 44.9356L19.0992 42.3012L18.2759 40.1608L17.782 37.8557V33.5748L18.4406 30.7758L19.2638 28.8L20.4164 26.9889L21.075 25.8363L22.5568 24.1899L24.6972 22.5434L26.1791 21.7201L28.9781 20.7322L31.4478 20.2383Z" fill="black"/>
<path d="M31.4478 20.2383H35.0701L37.5399 20.7322L40.3389 21.7201L41.3268 22.3787L41.4914 22.708V23.8606L40.6682 24.6838H39.5156L37.3752 23.6959L35.3994 23.202L34.2469 23.0373H32.2711L29.6367 23.5313L27.0023 24.6838H26.673V25.0131L25.0265 26.1656L23.0507 28.1414L21.7336 30.4465L20.9103 32.587L20.581 34.3981V37.0325L21.075 39.3376L22.0629 41.8073L23.5447 43.7831L24.3679 44.771L26.673 46.5821L28.9781 47.7347L31.7771 48.3932H34.7408L37.3752 47.7347L39.351 46.9114L40.9975 45.7589L41.6561 45.1003H41.9854V44.771H42.3147L42.644 44.1124L44.1258 42.3012L45.1137 40.3254L45.7723 38.0204L45.9369 36.8678V34.5627L45.443 32.093L44.6198 30.1172L44.1258 28.9647L44.2905 27.9768L44.7844 27.4828L45.9369 27.3182L46.7602 27.8121L47.7481 29.7879L48.5713 32.587L48.736 33.7395V37.6911L48.242 40.1608L47.2541 42.9598L46.1016 44.771L44.6198 46.5821L42.8086 48.2286L40.5035 49.5458L39.1863 50.2044L36.552 51.0276L35.5641 51.1923H30.9539L28.1549 50.5337L25.5205 49.2165L23.5447 48.0639L21.5689 46.2528L20.581 44.9356L19.0992 42.3012L18.2759 40.1608L17.782 37.8557V33.5748L18.4406 30.7758L19.2638 28.8L20.4164 26.9889L21.075 25.8363L22.5568 24.1899L24.6972 22.5434L26.1791 21.7201L28.9781 20.7322L31.4478 20.2383Z" fill="url(#paint2_linear_1_14547)"/>
<path d="M29.9661 2.45312H36.3874L39.845 2.94707L44.1259 4.09961L47.2542 5.41681L50.3825 7.06329L52.1937 8.21584L52.3583 8.38049V9.86233L51.6997 10.5209H50.2179L48.0774 9.20373V8.87443L47.0896 8.54513L44.4552 7.39259L42.3147 6.734L39.1864 5.91075L35.5641 5.41681H30.954L27.3317 5.91075L24.2034 6.734L21.569 7.55724L18.9346 8.87443L16.4649 10.3563L14.4891 11.8381L13.3365 12.0028L12.5133 11.5088L12.3486 11.1795V9.86233L13.1719 9.03908L14.8184 7.88654L17.9467 6.0754L21.075 4.59356L24.5327 3.44102L28.6489 2.61777L29.9661 2.45312Z" fill="black"/>
<path d="M29.9661 2.45312H36.3874L39.845 2.94707L44.1259 4.09961L47.2542 5.41681L50.3825 7.06329L52.1937 8.21584L52.3583 8.38049V9.86233L51.6997 10.5209H50.2179L48.0774 9.20373V8.87443L47.0896 8.54513L44.4552 7.39259L42.3147 6.734L39.1864 5.91075L35.5641 5.41681H30.954L27.3317 5.91075L24.2034 6.734L21.569 7.55724L18.9346 8.87443L16.4649 10.3563L14.4891 11.8381L13.3365 12.0028L12.5133 11.5088L12.3486 11.1795V9.86233L13.1719 9.03908L14.8184 7.88654L17.9467 6.0754L21.075 4.59356L24.5327 3.44102L28.6489 2.61777L29.9661 2.45312Z" fill="url(#paint3_linear_1_14547)"/>
<path d="M59.109 16.6133H60.5909L61.0848 17.1072L62.0727 18.9184L63.7192 21.882L65.201 25.8336L66.0243 28.9619L66.5182 32.2549L66.6829 36.2065L66.3536 40.4874L65.695 43.7803L64.7071 47.0733L64.0485 47.7319L63.0606 47.8966L62.0727 47.4026L61.9081 47.0733V45.7561L62.896 42.2985L63.3899 39.6641L63.5546 38.3469V33.2428L63.0606 29.7852L62.2374 26.6569L61.4141 24.0225L60.0969 21.2235L58.4504 18.5891V17.2719L59.109 16.6133Z" fill="black"/>
<path d="M59.109 16.6133H60.5909L61.0848 17.1072L62.0727 18.9184L63.7192 21.882L65.201 25.8336L66.0243 28.9619L66.5182 32.2549L66.6829 36.2065L66.3536 40.4874L65.695 43.7803L64.7071 47.0733L64.0485 47.7319L63.0606 47.8966L62.0727 47.4026L61.9081 47.0733V45.7561L62.896 42.2985L63.3899 39.6641L63.5546 38.3469V33.2428L63.0606 29.7852L62.2374 26.6569L61.4141 24.0225L60.0969 21.2235L58.4504 18.5891V17.2719L59.109 16.6133Z" fill="url(#paint4_linear_1_14547)"/>
<defs>
<linearGradient id="paint0_linear_1_14547" x1="38.3631" y1="0.972656" x2="38.3631" y2="60.2463" gradientUnits="userSpaceOnUse">
<stop stop-color="#8AFDD6"/>
<stop offset="1" stop-color="#8E8CFE"/>
</linearGradient>
<linearGradient id="paint1_linear_1_14547" x1="30.5424" y1="17.2734" x2="30.5424" y2="68.9732" gradientUnits="userSpaceOnUse">
<stop stop-color="#8AFDD6"/>
<stop offset="1" stop-color="#8E8CFE"/>
</linearGradient>
<linearGradient id="paint2_linear_1_14547" x1="33.259" y1="20.2383" x2="33.259" y2="51.1923" gradientUnits="userSpaceOnUse">
<stop stop-color="#8AFDD6"/>
<stop offset="1" stop-color="#8E8CFE"/>
</linearGradient>
<linearGradient id="paint3_linear_1_14547" x1="32.3535" y1="2.45312" x2="32.3535" y2="12.0028" gradientUnits="userSpaceOnUse">
<stop stop-color="#8AFDD6"/>
<stop offset="1" stop-color="#8E8CFE"/>
</linearGradient>
<linearGradient id="paint4_linear_1_14547" x1="62.5667" y1="16.6133" x2="62.5667" y2="47.8966" gradientUnits="userSpaceOnUse">
<stop stop-color="#8AFDD6"/>
<stop offset="1" stop-color="#8E8CFE"/>
</linearGradient>
</defs>
</svg>
