<svg width="68" height="68" viewBox="0 0 68 68" fill="none" xmlns="http://www.w3.org/2000/svg">
<path d="M29.1635 0.265625H30.4628L31.9066 0.699504L33.2059 1.56726L33.7834 2.14577L34.6497 3.73666L35.6603 5.18292L37.9703 8.94321L38.9809 10.5341L39.8471 11.8357L40.4246 12.9927L42.3015 15.8853L44.034 18.6332L45.7665 21.3811V21.9596H46.0552L47.3546 23.9844L48.5096 25.4306L50.3864 27.3108L51.8301 28.3231L53.1295 29.0463L53.8514 29.1909L54.4289 28.9016L54.862 27.7446L55.7282 22.2488L56.7389 18.1993L57.4607 16.1745L58.327 15.0175L59.0488 14.1498L60.6369 13.1374L62.3694 12.5589L63.2357 12.4142H64.535L66.5563 12.8481L67.7113 13.4266L68 13.7159V15.1621L66.5563 20.9472L66.1231 23.6951L65.9788 25.4306V28.757L66.2675 31.7942L67.1338 37.29L67.5669 41.3395L67.7113 43.6535V47.4138L67.2781 50.1617L66.5563 52.0419L65.5456 53.922L64.1019 55.8022L62.5138 57.5377L61.3588 58.5501L59.9151 59.8517L58.7601 60.8641L58.0382 61.4426L57.4607 62.0211L55.8726 63.3227L54.7176 63.9012L53.2739 64.769L50.9639 65.926L48.6539 66.6491L45.9108 67.083H43.6008L40.7134 66.6491L37.8259 65.6367L35.5159 64.4797L34.0722 63.612L33.0616 63.0335L30.7516 61.298L29.1635 59.9963L28.4416 59.4178L27.5754 58.4054L25.9873 57.1038L23.5329 54.7898L22.3779 53.7774V53.4881L21.8004 53.1989L20.2123 52.1865L16.8917 50.451L14.4374 49.0047L10.9724 47.1246L9.09554 45.9676L6.78556 44.8106L4.47558 43.5089L1.73248 41.918L0.577495 40.6164L0.144374 39.604L0 38.0131L0.433121 36.2776L1.29936 34.976L2.30998 34.1082L4.04246 33.6743H5.19745L6.92994 34.1082L10.828 36.133L13.5711 37.5792L17.4692 39.604L18.7686 40.1825L21.656 41.6288L22.0892 41.7734L20.0679 40.1825L19.3461 39.604L18.3355 39.0255L16.3142 37.4346L14.5817 35.9883L12.2718 34.2528L9.23991 31.9388L6.78556 30.0587L4.33121 28.1785L2.88747 26.8769L2.30998 25.7199L2.16561 25.1414V22.6827L2.59873 21.6703L3.46497 20.5133L4.76433 19.5009L6.49682 19.0671H7.50743L8.95117 19.5009L10.2505 20.3687L12.2718 21.815L13.2824 22.3935L15.5924 24.129L17.9023 25.8645L20.3567 27.6L23.0998 29.4802L25.4098 31.2157L27.7197 32.8066V33.0958L28.2972 33.3851L28.7304 33.5297L27.7197 32.5173L26.7091 31.3603L24.9766 29.6248L23.966 28.4678L22.3779 26.8769L21.3673 25.7199L19.6348 23.9844L18.6242 22.8273L17.1805 21.3811L16.603 20.6579L15.8811 19.9348L14.4374 18.4885L13.4268 17.3315L11.6943 15.596L10.9724 14.7283L10.3949 14.1498L9.96178 12.8481L9.81741 10.968L10.1062 9.66634L10.6837 8.3647L11.6943 7.20769L12.8493 6.48456L14.293 6.05068H16.0255L17.4692 6.48456L18.6242 7.35232L21.9448 10.6787L22.9554 11.8357L25.4098 14.2944L26.4204 15.4514L28.7304 17.7654L29.741 18.9224L32.1953 21.3811L33.2059 22.5381L33.9278 23.2612L35.6603 24.9967L36.2378 25.5752L34.3609 22.3935L33.9278 21.5257L32.4841 19.2117L30.1741 15.4514L28.4416 12.7035L28.0085 11.6911L26.5648 9.37709L25.2654 7.20769L24.9766 6.33993V4.02591L25.5541 2.72427L26.4204 1.56726L27.7197 0.699504L29.1635 0.265625ZM29.3079 2.8689L28.1529 3.44741L27.7197 3.88128L27.5754 4.45979V5.76143L28.0085 6.91844L29.4522 9.23246L30.7516 11.2572L33.4947 15.8853L35.949 19.9348L37.104 21.9596H37.3928L37.6815 22.6827L39.1253 25.1414L39.414 26.0091V27.7446L38.5478 28.757L37.8259 29.0463H36.5265L35.3715 28.4678L34.3609 27.3108L33.6391 26.7323L32.6284 25.5752L30.0297 22.972L29.0191 21.815L26.7091 19.5009L25.6985 18.3439L23.2442 15.8853L22.2335 14.7283L19.6348 12.125L18.6242 10.968L16.603 8.94321L15.8811 8.65396H14.5817L13.138 9.37709L12.5605 10.2448L12.2718 11.5465L12.5605 12.5589L13.8599 14.0051L16.1699 16.4638L17.3248 17.6208L18.3355 18.7778L20.0679 20.5133L21.0786 21.6703L22.6667 23.2612L23.6773 24.4182L25.2654 26.0091L26.276 27.1661L27.8641 28.757L28.8747 29.914L30.6072 31.6495L31.6178 32.8066L32.1953 33.9636V35.4098L31.6178 36.2776L30.7516 36.8561H29.1635L28.2972 36.4222L25.6985 34.5421L23.2442 32.8066L22.3779 32.2281L20.0679 30.4925L17.3248 28.6124L16.603 28.0339H16.3142V27.7446L14.7261 26.7323L12.7049 25.286L10.6837 23.8397L9.23991 22.6827L7.6518 21.6703L6.64119 21.5257L5.63057 21.9596L4.9087 22.6827L4.61996 23.2612V24.7075L5.19745 25.5752L7.36306 27.3108L9.38429 28.757H9.67304V29.0463L12.5605 31.2157L14.5817 32.8066L15.5924 33.5297L16.0255 33.9636L17.3248 34.8313L19.3461 36.4222L21.8004 38.3024L22.9554 39.3147L24.6879 40.4718L25.8429 41.4841L26.276 42.3519V43.9428L25.6985 44.8106L25.2654 45.2444H22.9554L20.6454 44.0874L16.3142 41.918L13.138 40.1825L8.66242 38.0131L5.91932 36.5668L4.9087 36.133L3.89809 36.2776L3.17622 36.8561L2.7431 37.7239V39.0255L3.32059 39.8933L6.06369 41.3395L9.38429 43.2197L10.828 44.0874L14.4374 46.1122L16.1699 46.9799L19.4904 48.8601L22.2335 50.451L24.1104 51.8972L25.2654 52.765L26.8535 54.3559L27.5754 54.9344L28.586 56.0914L30.0297 57.393L32.051 58.9839L33.4947 60.1409H33.7834L33.9278 60.5748L36.6709 62.3103L39.414 63.612L41.0021 64.1905L43.3121 64.4797H46.0552L48.7983 64.0459L51.8301 62.7442L54.5732 60.8641L56.1614 59.5624L57.6051 58.2608L58.327 57.8269L58.4713 57.393L59.0488 57.1038L61.5032 54.7898L62.8025 53.3435L64.1019 51.3187L64.535 50.451L64.9682 48.4262L65.1125 47.2692V43.7982L64.535 36.5668L63.6688 30.7818L63.5244 28.9016V25.286L63.8132 22.1042L64.8238 16.8977L65.1125 15.7406V15.1621L64.8238 15.0175H63.0913L61.6476 15.4514L60.3482 16.4638L59.482 17.91L58.4713 21.3811L57.8938 24.129L57.4607 27.8893L57.0276 29.6248L56.1614 30.9264L54.7176 31.6495H52.6964L50.6752 30.6372L49.087 29.4802L47.6433 28.1785L47.2102 28.0339L46.9214 27.4554L45.7665 26.1537L44.3227 23.9844L42.7346 21.3811H42.4459L42.1571 20.6579L40.569 18.0547L39.9915 16.8977L38.8365 15.1621L37.104 12.4142L35.2272 9.37709L34.5053 8.3647L33.7834 6.91844L31.6178 3.59203L30.896 3.15815L30.1741 2.8689H29.3079Z" fill="url(#paint0_linear_1_14458)"/>
<path d="M0.865323 51.1172H1.87487L2.59597 51.7085L3.46129 53.1868L4.75928 55.1085L6.05726 56.4389L8.07635 57.9172L10.8165 59.2476L12.8356 59.8389L14.4221 60.1346L16.8738 60.2824L17.5949 60.8737L17.7391 61.1694V62.0563L17.4507 62.6476L17.018 62.9433H14.1336L11.6819 62.4998L8.79745 61.465L6.63415 60.2824L4.61506 58.8041L3.89396 58.065L2.16331 56.2911L0.432662 53.6302L0 52.5954L0.144221 51.7085L0.865323 51.1172Z" fill="url(#paint1_linear_1_14458)"/>
<path d="M42.1148 0.265625H43.2722L45.4424 1.1209L47.468 2.40382L49.4935 3.97184L50.6509 4.96966L52.0977 6.82277L52.9658 8.39078L54.268 11.0992L54.9914 13.9501V15.6607L54.4126 16.2308H53.1105L52.6765 15.8032L51.9531 12.5246L51.085 10.3864L50.2169 8.96097L49.0594 7.39295L47.7573 5.96749L46.5999 4.96966L45.1531 3.97184L41.9701 2.68892L41.536 2.11873L41.3914 1.26345L41.8254 0.550718L42.1148 0.265625Z" fill="url(#paint2_linear_1_14458)"/>
<path d="M6.03395 48.1602H7.17381L7.88623 48.8872L9.16857 50.7774L10.5934 52.086L12.4457 53.2493L15.0104 54.1217L16.7202 54.5579L17.1476 55.2849L17.0051 56.3027L16.4352 56.8843L15.7228 57.0297L13.4431 56.5935L11.1633 55.7211L9.59602 54.7033L8.17119 53.5401L6.74636 52.086L5.32153 49.905V48.8872L6.03395 48.1602Z" fill="url(#paint3_linear_1_14458)"/>
<path d="M40.8092 5.58984H41.8604L43.5123 6.4768L44.8638 7.51158L45.9151 8.39854L46.9663 9.72897V10.0246H47.2666L48.468 12.0942L49.2188 14.0159L49.6694 15.7898L49.5192 16.8246L48.9185 17.4159H47.567L46.9663 16.6768L46.3656 14.1638L45.3144 12.0942L44.2632 10.7638L42.9116 9.43332L41.8604 8.84202L40.3587 7.95506L40.2085 7.65941V6.18115L40.8092 5.58984Z" fill="url(#paint4_linear_1_14458)"/>
<defs>
<linearGradient id="paint0_linear_1_14458" x1="34" y1="0.265625" x2="34" y2="67.083" gradientUnits="userSpaceOnUse">
<stop stop-color="#8AFDD6"/>
<stop offset="1" stop-color="#8E8CFE"/>
</linearGradient>
<linearGradient id="paint1_linear_1_14458" x1="8.86957" y1="51.1172" x2="8.86957" y2="62.9433" gradientUnits="userSpaceOnUse">
<stop stop-color="#8AFDD6"/>
<stop offset="1" stop-color="#8E8CFE"/>
</linearGradient>
<linearGradient id="paint2_linear_1_14458" x1="48.1914" y1="0.265625" x2="48.1914" y2="16.2308" gradientUnits="userSpaceOnUse">
<stop stop-color="#8AFDD6"/>
<stop offset="1" stop-color="#8E8CFE"/>
</linearGradient>
<linearGradient id="paint3_linear_1_14458" x1="11.2346" y1="48.1602" x2="11.2346" y2="57.0297" gradientUnits="userSpaceOnUse">
<stop stop-color="#8AFDD6"/>
<stop offset="1" stop-color="#8E8CFE"/>
</linearGradient>
<linearGradient id="paint4_linear_1_14458" x1="44.9389" y1="5.58984" x2="44.9389" y2="17.4159" gradientUnits="userSpaceOnUse">
<stop stop-color="#8AFDD6"/>
<stop offset="1" stop-color="#8E8CFE"/>
</linearGradient>
</defs>
</svg>
