<svg width="80" height="81" viewBox="0 0 80 81" fill="none" xmlns="http://www.w3.org/2000/svg">
<path d="M36.32 0.460938H43.68L47.2 0.780937L51.2 1.74094L54.56 2.86094L57.76 4.30094L59.84 5.42094L62.88 7.34094L64.64 8.46094L67.04 10.7009L71.2 14.8609L72.96 17.2609L73.76 18.7009L75.68 21.7409L77.12 24.7809L78.56 28.6209L79.52 32.4609L80 36.7809V79.8209L79.36 80.4609H36.48L32.96 80.1409L29.44 79.3409L26.88 78.5409L23.68 77.2609L21.12 75.9809L17.92 74.0609L16.16 72.9409L13.92 71.1809L13.12 70.3809L9.92 67.1809V66.8609L9.28 66.5409L7.36 64.1409L6.08 61.9009L4.48 59.3409L3.2 56.7809L1.92 53.5809L0.8 49.9009L0.32 47.5009L0 44.1409V36.7809L0.32 33.4209L1.12 29.9009L1.92 27.3409L3.2 24.1409L4.48 21.5809L6.4 18.3809L7.52 16.6209L9.28 14.3809L10.08 13.5809L13.28 10.3809L14.08 9.58094L16.32 7.82094L18.24 6.70094L21.12 4.94094L23.68 3.66094L26.88 2.38094L29.28 1.58094L32.96 0.780937L36.32 0.460938ZM39.2 3.50094L35.2 3.82094L31.2 4.62094L28 5.58094L25.44 6.54094L23.52 7.34094L20.16 9.26094L19.68 9.58094V9.90094L18.88 10.2209L16.64 11.9809L14.56 13.7409L13.28 14.8609L12.32 16.1409L10.56 18.2209L9.44 19.8209V20.1409H9.12L7.52 22.8609L6.4 25.1009L4.96 28.9409L3.84 32.9409L3.36 35.6609L3.04 39.8209L3.2 43.8209L3.68 47.1809L4.64 51.0209L5.76 54.2209L6.56 56.1409L7.84 58.7009L9.12 60.7809H9.44L9.76 61.5809L11.52 63.8209L13.28 65.9009L14.24 67.0209L15.68 68.1409L17.76 69.9009L19.36 71.0209H19.68V71.3409L22.72 73.1009L24.96 74.2209L29.44 75.8209L33.28 76.7809L36.64 77.2609L39.2 77.4209H76.96V39.9809L76.64 35.6609L76.16 32.9409L75.2 29.2609L73.92 25.9009L73.28 24.3009L71.52 21.1009L69.44 18.2209L67.68 16.1409L66.56 14.7009L65.28 13.4209L63.84 12.3009L61.44 10.3809L59.36 8.94094L56.8 7.50094L55.04 6.70094L51.2 5.26094L47.52 4.30094L44.8 3.82094L40.8 3.50094H39.2Z" fill="url(#paint0_linear_4042_100)"/>
<circle cx="25" cy="20.4609" r="3" fill="#B9B9B9"/>
<circle cx="39" cy="45.4609" r="3" fill="#B9B9B9"/>
<circle cx="69.5" cy="39.9609" r="3.5" fill="#B9B9B9"/>
<path d="M3.5 40.4627H19C21 32.7961 25 17.8627 25 19.4627C25 21.0627 31 46.7949 34 59.4609L43.5 31.9609L50.5 51.9609L61.5 40.4627H77" stroke="#B9B9B9" stroke-width="1.6"/>
<defs>
<linearGradient id="paint0_linear_4042_100" x1="40" y1="0.460937" x2="40" y2="80.4609" gradientUnits="userSpaceOnUse">
<stop stop-color="#8AFDD6"/>
<stop offset="1" stop-color="#8E8CFE"/>
</linearGradient>
</defs>
</svg>
