<svg width="68" height="53" viewBox="0 0 68 53" fill="none" xmlns="http://www.w3.org/2000/svg">
<path d="M34 0.367188H37.264L39.44 0.775187L41.888 1.59119L43.928 2.67919L45.152 3.63119L46.376 4.58319L47.464 5.67119L48.824 7.57519L49.776 9.20719L50.048 9.88719L52.496 9.61519H55.896L57.392 9.75119L59.84 10.5672L61.608 11.5192L62.152 12.0632V13.2872L61.608 13.8312H60.656L58.48 12.7432L56.44 12.0632L55.488 11.9272H52.768L50.864 12.3352L51.136 14.7832V17.0952L53.176 16.5512H55.08L56.304 16.8232L58.208 17.7752L59.296 18.7272L60.248 20.0872L60.928 21.7192L61.064 22.2632V24.7112L60.656 26.2072L59.84 27.5672L58.616 28.9272L57.12 29.8792L55.488 30.4232L53.176 30.8312L51 31.9192L50.048 32.7352L48.824 34.6392L48.008 37.3592L48.144 38.5832L48.824 39.5352L49.64 39.9432L50.456 40.0792L51.272 39.8072L51.952 39.3992L52.632 38.0392L53.176 36.2712L54.128 35.4552L54.944 35.1832L57.12 34.7752L58.888 34.0952L60.248 33.4152L61.608 32.4632L62.56 31.6472L64.056 29.6072L65.144 27.2952L65.688 25.2552V21.8552L65.28 20.2232L64.6 18.4552L63.648 16.8232L63.376 16.4152V15.4632L63.92 14.9192H65.144L66.096 16.0072L67.184 18.1832L67.728 19.6792L68 21.5832V25.5272L67.592 27.8392L66.64 30.0152L65.688 31.6472L63.784 33.6872L62.56 34.7752L61.2 35.7272L59.296 36.6792L56.984 37.3592L55.216 37.4952L54.944 38.8552L54.4 40.2152L53.176 41.5752L51.952 42.2552L50.592 42.5272L49.096 42.3912L47.872 41.8472L46.648 40.8952L45.832 39.5352L45.696 39.1272V36.4072L46.376 34.0952L47.192 32.4632L48.688 30.6952L50.32 29.4712L52.224 28.5192L54.264 28.1112L55.896 27.7032L57.256 26.8872L58.072 25.7992L58.616 24.4392V22.6712L58.072 21.1752L57.256 20.0872L56.168 19.4072L54.808 18.9992H53.448L51.816 19.5432L50.864 20.2232L50.32 21.3112L49.368 23.4872L48.008 25.5272L47.464 26.2072L46.376 27.1592L45.424 28.1112L44.2 29.0632L42.296 30.1512L40.936 30.6952H40.664V33.1432L40.256 34.6392L39.304 36.1352L38.352 36.9512L37.128 37.4952H34L32.64 36.8152L31.824 36.1352L31.008 34.9112L30.6 33.9592L30.464 33.2792V29.7432L30.872 27.7032L31.552 26.0712L32.504 24.5752L33.728 23.2152L35.088 21.9912L36.584 21.1752L37.944 20.7672L39.304 19.8152L39.848 19.1352L40.528 17.7752L40.8 16.6872V15.0552L40.256 13.5592L39.44 12.1992L38.08 11.2472L36.584 10.7032H34.544L33.184 11.2472L31.688 12.3352L30.736 13.8312L30.328 15.0552L30.056 17.3672L29.104 19.2712L27.88 20.3592L27.336 20.4952L27.744 21.9912L27.88 22.9432V26.4792L27.472 28.5192L27.064 29.7432L26.384 30.1512L25.296 30.0152L24.888 29.4712V28.5192L25.432 26.3432V23.2152L25.024 21.0392L23.256 20.7672L21.896 20.0872L20.808 18.8632L20.264 17.7752L19.992 16.6872V14.7832L19.312 14.5112L17.408 13.6952L15.912 13.2872L14.824 13.1512H12.784L10.608 13.5592L8.432 14.5112L6.936 15.3272L5.576 16.5512L4.08 18.4552L2.992 20.6312L2.448 22.3992L2.312 23.0792V26.4792L2.856 28.5192L3.4 29.7432L4.08 30.4232L5.032 30.8312L6.12 30.6952L6.936 30.1512L7.48 29.1992L7.616 28.2472L6.936 25.9352V23.6232L7.48 21.8552L8.024 20.9032L9.248 19.5432L10.336 18.7272L11.832 18.0472L13.328 17.7752L15.368 17.9112L16.728 18.3192L18.224 19.2712L19.448 20.4952L20.264 21.7192L20.808 23.6232V25.9352L20.128 27.9752L19.176 29.3352L18.224 30.2872L17.272 31.6472L16.864 32.4632L16.592 33.8232V36.1352L17 37.9032L17.952 39.8072L19.04 40.4872H20.536L21.352 39.9432L21.896 39.2632L22.032 38.9912V37.4952L21.352 35.9992L21.216 35.5912V34.3672L21.624 33.5512L22.576 32.4632L23.392 31.9192L24.344 32.0552L24.888 32.5992V33.4152L23.8 34.7752L23.664 35.4552L24.344 37.2232V39.3992L23.8 40.7592L22.576 42.1192L20.944 42.9352H18.768L17.272 42.3912L16.32 41.5752L15.368 40.0792L14.28 37.2232L14.144 36.4072V33.5512L14.688 31.6472L15.64 29.7432L16.864 28.2472L17.816 27.1592L18.36 25.5272V24.0312L17.952 22.6712L16.864 21.1752L16.048 20.6312L14.28 20.2232L12.784 20.3592L11.424 20.7672L11.016 20.9032L10.744 21.4472L10.064 22.2632L9.52 23.3512L9.384 23.8952V25.6632L9.928 27.4312L10.064 28.9272L9.656 30.5592L8.704 31.9192L7.072 32.8712L5.984 33.1432H4.624L3.264 32.7352L1.768 31.7832L1.224 30.9672L0.68 29.8792L0.272 28.6552L0 26.7512V22.8072L0.408 20.4952L1.36 18.1832L2.312 16.6872L3.264 15.4632L4.352 14.5112L5.576 13.4232L6.936 12.4712L8.976 11.5192L11.56 10.8392L12.648 10.7032H15.096L17.408 11.1112L19.992 12.0632L20.4 12.1992L21.08 10.0232L22.304 7.71119L23.256 6.21519L24.752 4.58319L25.16 4.17519L25.84 3.76719L27.608 2.54319L28.968 1.72719L31.28 0.911187L32.912 0.503187L34 0.367188ZM34.136 2.67919L32.096 3.08719L29.92 3.76719L28.016 4.85519V5.12719L27.472 5.39919L26.112 6.62319L24.752 8.11919L23.392 10.2952L22.576 12.6072L22.304 14.7832V16.4152L22.712 17.6392L23.664 18.4552L24.888 18.8632L26.248 18.5912L27.064 18.0472L27.608 17.3672L28.016 16.2792L28.288 14.1032L28.968 12.0632L30.192 10.4312L30.872 9.88719L33.184 8.79919L34.272 8.52719H36.992L38.76 9.07119L40.392 10.0232L41.072 10.7032L41.888 11.6552L42.704 13.2872L43.112 14.9192V16.9592L42.704 18.5912L41.888 20.2232V20.4952L41.48 20.6312L40.528 21.7192L39.168 22.6712L36.992 23.6232L35.496 24.7112L34.408 25.7992L33.728 26.7512L32.912 29.0632L32.776 29.8792V33.1432L33.592 34.5032L34.272 35.0472L34.816 35.3192H36.312L37.672 34.5032L38.352 33.4152L38.488 32.8712L38.624 30.1512L39.168 29.0632L40.392 28.3832L42.568 27.2952L44.064 26.3432L45.152 25.3912L46.648 23.3512L47.872 21.1752L48.552 19.2712L48.824 18.0472L48.96 16.8232V14.9192L48.552 12.6072L47.736 10.4312L46.784 8.66319L45.832 7.43919L44.88 6.35119L43.656 5.26319L41.752 4.03919L40.528 3.49519L37.944 2.81519L37.128 2.67919H34.136Z" fill="url(#paint0_linear_1_14464)"/>
<path d="M34.9516 39.125H36.3116L38.0796 39.669L39.3036 40.621L40.2556 42.117L40.6636 43.613V44.973L40.2556 46.469L39.4396 47.693L38.6236 48.645L37.2636 49.189L36.7196 49.325H34.4076L33.0476 48.917L31.8236 47.965L31.0076 46.741L30.5996 45.789L30.4636 45.109V43.477L31.0076 41.845L31.8236 40.757L32.9116 39.805L34.2716 39.261L34.9516 39.125ZM35.2236 41.437L34.1356 41.845L33.3196 42.525L32.9116 43.205L32.7756 43.749V44.837L33.4556 46.197L34.2716 46.877L34.9516 47.149H36.1756L37.5356 46.469L38.3516 45.245L38.4876 43.885L38.0796 42.933L37.2636 41.981L36.4476 41.573L35.2236 41.437Z" fill="url(#paint1_linear_1_14464)"/>
<path d="M22.9845 43.3398H25.0245L26.6565 43.8838V44.1558L27.2005 44.4278L27.8805 45.1078L28.4245 46.4678L28.5605 47.0118V48.9158L28.0165 50.5478L27.3365 51.3638L26.1125 52.1798L24.8885 52.5878H22.9845L21.3525 51.9078L20.5365 51.2278L19.7205 50.0038L19.3125 48.9158V46.8758L19.9925 45.2438L20.9445 44.1558L22.0325 43.6118L22.9845 43.3398ZM23.2565 45.5158L22.4405 45.9238L21.6245 47.2838V48.5078L22.1685 49.5958L22.9845 50.1398L23.3925 50.2758H24.4805L25.5685 49.7318L26.2485 48.9158L26.3845 48.5078V47.4198L25.8405 46.3318L25.1605 45.7878L24.6165 45.5158H23.2565Z" fill="url(#paint2_linear_1_14464)"/>
<path d="M46.3766 43.3398H48.6886L50.1846 43.8838L51.1366 44.6998L51.9526 46.0598L52.2246 47.1478V48.7798L51.6806 50.2758L50.4566 51.7718L49.0966 52.4518L48.5526 52.5878H46.6486L45.5606 52.1798L44.3366 51.3638L43.5206 50.2758L42.9766 48.9158V46.8758L43.5206 45.5158L44.0646 44.6998L45.1526 43.7478L46.3766 43.3398ZM46.9206 45.5158L45.9686 46.0598L45.2886 46.8758L45.1526 47.2838V48.6438L45.5606 49.4598L46.6486 50.1398L47.0566 50.2758H48.1446L48.9606 49.8678L49.6406 49.3238L50.0486 48.3718V47.4198L49.5046 46.3318L48.8246 45.7878L48.2806 45.5158H46.9206Z" fill="url(#paint3_linear_1_14464)"/>
<defs>
<linearGradient id="paint0_linear_1_14464" x1="34" y1="0.367187" x2="34" y2="42.9352" gradientUnits="userSpaceOnUse">
<stop stop-color="#8AFDD6"/>
<stop offset="1" stop-color="#8E8CFE"/>
</linearGradient>
<linearGradient id="paint1_linear_1_14464" x1="35.5636" y1="39.125" x2="35.5636" y2="49.325" gradientUnits="userSpaceOnUse">
<stop stop-color="#8AFDD6"/>
<stop offset="1" stop-color="#8E8CFE"/>
</linearGradient>
<linearGradient id="paint2_linear_1_14464" x1="23.9365" y1="43.3398" x2="23.9365" y2="52.5878" gradientUnits="userSpaceOnUse">
<stop stop-color="#8AFDD6"/>
<stop offset="1" stop-color="#8E8CFE"/>
</linearGradient>
<linearGradient id="paint3_linear_1_14464" x1="47.6006" y1="43.3398" x2="47.6006" y2="52.5878" gradientUnits="userSpaceOnUse">
<stop stop-color="#8AFDD6"/>
<stop offset="1" stop-color="#8E8CFE"/>
</linearGradient>
</defs>
</svg>
