<svg width="68" height="69" viewBox="0 0 68 69" fill="none" xmlns="http://www.w3.org/2000/svg">
<path d="M27.9678 0.460938H31.9436L34.2743 0.872228L36.3307 1.69481L38.113 2.79158L39.7581 4.02545L41.1291 4.43674L44.1452 4.02545H48.9436L51.2743 4.43674L54.0162 5.25932L56.7581 6.4932L58.4033 7.45287L60.1855 8.82384L61.5565 10.0577L62.7904 11.4287L64.0243 12.9367L65.5323 15.4045L66.492 17.4609L67.3146 19.9287L67.863 22.8077L68.0001 24.4529V26.098L67.7259 28.84L67.0404 31.719L66.0807 34.3238L64.4355 37.2029L63.0646 38.9851L62.242 39.9448L61.9678 40.0819H61.1452L60.4597 39.3964V38.4367L62.242 36.1061L63.3388 34.1867L64.2984 31.9932L65.121 29.3884L65.3952 27.7432L65.5323 26.098V24.59L65.2581 22.1222L64.5726 19.5174L63.7501 17.4609L63.3388 16.6384L62.3791 14.8561L61.0081 13.0738L59.7743 11.7029L58.5404 10.7432L56.621 9.23513L54.0162 7.86416L51.4113 6.90449L49.492 6.4932L48.5323 6.3561H44.4194L41.4033 6.76739L39.4839 6.4932L37.9759 5.80771L36.0565 4.43674L33.863 3.33997L31.6694 2.79158L29.8872 2.65449L27.5565 2.92868L25.0888 3.75126L23.5807 4.57384L21.7984 5.94481L20.7017 7.17868L19.6049 8.96094L18.7823 10.8803L17.8226 12.7996L16.3146 14.3077L14.3952 15.1303L12.2017 16.09L10.5565 17.1867L9.04844 18.4206L7.81457 19.7916L6.4436 21.848L5.48393 23.7674L4.79844 26.6464L4.66135 27.469V30.8964L5.34683 34.3238L6.5807 36.9287L7.95167 38.848L9.45973 40.4932L11.9275 42.2755L14.5323 43.5093L17.0001 44.1948L17.8226 44.3319H23.7178L25.363 44.8803L26.4597 45.7029L27.4194 46.6626L28.5162 48.1706L29.4759 49.1303L31.2581 50.3642L33.3146 51.3238L34.5484 51.7351L36.3307 52.0093H38.113L40.3065 51.598L42.0888 50.9126L43.5968 50.09L44.8307 49.1303L45.6533 48.4448L45.9275 47.8964L46.3388 47.6222L46.8872 46.6626L48.2581 45.1545L49.6291 44.3319L53.742 42.9609L55.9355 41.8642L57.992 40.6303H58.9517L59.5001 40.9045L59.6372 41.1787V42.1384L58.9517 42.8238L57.0323 44.0577L55.6613 44.8803L53.1936 45.84L51.1372 46.2513L49.9033 46.9367L49.0807 47.8964L47.9839 49.4045L47.4355 50.09H47.1613L46.8872 50.6384L45.6533 51.598L45.1049 51.7351V52.0093L42.7743 53.2432L40.7178 53.9287L39.4839 54.2029L38.2501 54.34H36.0565L33.7259 53.9287L31.6694 53.2432L29.7501 52.2835L28.3791 51.3238L26.7339 49.8158L25.6372 48.4448L24.6775 47.348L23.3065 46.6626H17.6855L14.9436 46.1142L12.8872 45.5658L10.8307 44.469L9.04844 43.2351L7.26618 41.7271L5.89522 40.219L4.52425 38.1626L3.15328 35.2835L2.4678 32.9529L2.1936 31.1706V27.3319L2.60489 25.0013L3.42747 22.5335L4.93554 19.6545L6.16941 18.0093L7.67747 16.3642L9.59683 14.8561L11.5162 13.6222L14.121 12.5255L15.3549 11.9771L16.1775 11.0174L17.2742 8.00126L17.9597 6.76739L19.1936 5.25932L20.1533 4.16255L22.0726 2.65449L24.1291 1.42061L26.0484 0.735131L27.9678 0.460938Z" fill="url(#paint0_linear_1_14572)"/>
<path d="M34.5485 9.64453L37.0162 9.78163L39.0727 10.33L41.2662 11.4268L42.2259 12.1123L42.9114 12.5236L44.2823 13.8945L45.1049 14.9913L46.3388 17.8703L46.7501 19.5155L46.8872 20.7494V22.3945L46.4759 24.7252L45.6533 26.9187L44.5565 28.701L43.3227 30.0719L42.0888 31.1687L41.2662 32.5397L40.992 33.3623V35.1445L41.6775 35.83L42.2259 36.6526L42.363 37.0639V38.8461L41.6775 40.2171L40.5807 40.9026L39.4839 41.1768H38.7985V42.4107L38.3872 43.6445L37.7017 44.4671L36.3307 45.0155H33.7259L32.6291 44.6042L31.9436 43.9187L31.5323 43.3703L31.3952 42.959V41.1768H30.4356L29.2017 40.7655L28.242 39.9429L27.6936 38.5719V37.3381L28.242 35.9671L29.0646 35.1445V33.7736L28.5162 31.8542L27.4194 30.6203L26.3227 29.6607L24.9517 28.0155L23.8549 25.8219L23.3065 23.9026L23.1694 23.08V19.9268L23.7178 17.7332L24.4033 16.0881L25.0888 15.2655H26.1856L26.7339 15.6768L26.871 16.7736L26.1856 18.1445L25.6372 20.201V22.9429L26.3227 25.2736L27.1452 26.7816L27.9678 27.8784L28.6533 28.701L30.0243 29.7978L30.8469 31.1687L31.3952 32.6768L31.5323 33.6365V34.8703H38.6614V32.951L39.2098 31.1687L40.1694 29.6607L41.9517 28.0155L43.0485 26.6445L43.871 24.9994L44.4194 23.2171L44.5565 22.1203V20.8865L44.1452 18.6929L43.5969 17.3219L42.363 15.5397L40.8549 14.0316L39.4839 13.072L37.2904 12.2494L35.371 11.9752L33.4517 12.1123L31.2581 12.7978L29.7501 13.6203L28.5162 14.4429L27.5565 14.3058L27.1452 13.7574V12.6607L27.8307 12.1123L29.2017 11.1526L31.3952 10.1929L33.1775 9.78163L34.5485 9.64453ZM30.9839 36.9268L30.2985 37.201L29.8872 37.7494L30.0243 38.4349L30.4356 38.8461L30.8469 38.9832H39.3469L40.0323 38.5719V37.3381L39.0727 36.9268H30.9839ZM33.7259 41.1768V42.5478L34.0001 42.6849H35.9194L36.4678 42.1365V41.1768H33.7259Z" fill="url(#paint1_linear_1_14572)"/>
<path d="M16.1774 49.9531H18.2338L19.7419 50.3644L20.8387 50.9128L22.2096 52.0096L23.1693 53.5176L23.7177 55.0257L23.8548 55.9854V57.2193L23.4435 59.0015L22.6209 60.5096L21.9354 61.4693L20.4274 62.566L19.3306 62.9773L18.3709 63.1144H16.0403L14.6693 62.8402L13.1612 62.0176L12.3387 61.3322L11.5161 60.2354L10.6935 58.0418L10.5564 57.0822V55.9854L10.8306 54.4773L11.7903 52.558L12.4758 51.7354L13.5725 50.9128L14.9435 50.2273L16.1774 49.9531ZM16.4516 52.1467L15.0806 52.6951L13.9838 53.5176L13.1612 54.7515L12.7499 56.2596L12.887 57.6305L13.5725 59.0015L14.3951 59.9612L15.4919 60.6467L16.4516 60.9209H17.9596L19.3306 60.3725L20.4274 59.5499L21.2499 58.316L21.6612 56.9451L21.5241 55.437L20.8387 54.066L20.0161 53.1064L18.508 52.2838L17.9596 52.1467H16.4516Z" fill="url(#paint2_linear_1_14572)"/>
<path d="M3.83871 59.9609H5.62097L6.99194 60.5093L8.08871 61.3319L8.91129 62.5658L9.32258 63.6625V65.3077L8.91129 66.6787L8.08871 67.7755L7.12903 68.598L5.75806 69.0093H3.56452L2.33065 68.598L1.23387 67.7755L0.41129 66.5416L0 65.0335L0.137097 63.3884L0.685484 62.1545L1.37097 61.1948L2.60484 60.3722L3.83871 59.9609ZM4.25 62.2916L2.87903 62.9771L2.46774 63.7996L2.33065 64.7593L2.74194 65.8561L3.70161 66.6787L3.97581 66.8158H5.48387L6.58065 65.8561L6.99194 64.8964L6.85484 63.6625L6.30645 62.84L5.34677 62.2916H4.25Z" fill="url(#paint3_linear_1_14572)"/>
<path d="M53.0564 19.9297H54.016L54.5644 20.341L54.7015 21.4378L54.4273 21.9861L52.508 22.8087L51.2741 22.9458L50.5886 22.2603V21.3007L51.2741 20.6152L53.0564 19.9297Z" fill="url(#paint4_linear_1_14572)"/>
<path d="M51.137 26.2344H54.1531L54.7015 26.7828V27.8795L54.1531 28.4279L53.7418 28.565H51.4112L50.7257 28.1537L50.5886 27.8795V26.7828L51.137 26.2344Z" fill="url(#paint5_linear_1_14572)"/>
<path d="M15.9031 26.2344H18.9193L19.4676 26.6457L19.6047 27.6053L19.1934 28.2908L18.6451 28.565H16.3144L15.6289 28.1537L15.3547 27.7424V26.9199L15.9031 26.2344Z" fill="url(#paint6_linear_1_14572)"/>
<path d="M16.0403 19.9297H17L19.0565 20.7523L19.4677 21.1636V22.2603L18.7823 22.9458L17.6855 22.8087L15.9032 22.1232L15.4919 21.7119V20.4781L16.0403 19.9297Z" fill="url(#paint7_linear_1_14572)"/>
<path d="M51.4112 31.7188L52.3709 31.8558L54.1531 32.5413L54.7015 33.2268V34.0494L54.1531 34.5978H52.9193L51.137 34.0494L50.5886 33.3639V32.5413L50.8628 31.9929L51.4112 31.7188Z" fill="url(#paint8_linear_1_14572)"/>
<path d="M18.0968 31.7188L19.0565 31.8558L19.4677 32.4042V33.501L18.6452 34.1865L17.1371 34.5978H16.0403L15.629 34.4607L15.4919 34.1865V32.9526L16.1774 32.4042L18.0968 31.7188Z" fill="url(#paint9_linear_1_14572)"/>
<defs>
<linearGradient id="paint0_linear_1_14572" x1="35.0968" y1="0.460937" x2="35.0968" y2="54.34" gradientUnits="userSpaceOnUse">
<stop stop-color="#8AFDD6"/>
<stop offset="1" stop-color="#8E8CFE"/>
</linearGradient>
<linearGradient id="paint1_linear_1_14572" x1="35.0283" y1="9.64453" x2="35.0283" y2="45.0155" gradientUnits="userSpaceOnUse">
<stop stop-color="#8AFDD6"/>
<stop offset="1" stop-color="#8E8CFE"/>
</linearGradient>
<linearGradient id="paint2_linear_1_14572" x1="17.2056" y1="49.9531" x2="17.2056" y2="63.1144" gradientUnits="userSpaceOnUse">
<stop stop-color="#8AFDD6"/>
<stop offset="1" stop-color="#8E8CFE"/>
</linearGradient>
<linearGradient id="paint3_linear_1_14572" x1="4.66129" y1="59.9609" x2="4.66129" y2="69.0093" gradientUnits="userSpaceOnUse">
<stop stop-color="#8AFDD6"/>
<stop offset="1" stop-color="#8E8CFE"/>
</linearGradient>
<linearGradient id="paint4_linear_1_14572" x1="52.6451" y1="19.9297" x2="52.6451" y2="22.9458" gradientUnits="userSpaceOnUse">
<stop stop-color="#8AFDD6"/>
<stop offset="1" stop-color="#8E8CFE"/>
</linearGradient>
<linearGradient id="paint5_linear_1_14572" x1="52.6451" y1="26.2344" x2="52.6451" y2="28.565" gradientUnits="userSpaceOnUse">
<stop stop-color="#8AFDD6"/>
<stop offset="1" stop-color="#8E8CFE"/>
</linearGradient>
<linearGradient id="paint6_linear_1_14572" x1="17.4797" y1="26.2344" x2="17.4797" y2="28.565" gradientUnits="userSpaceOnUse">
<stop stop-color="#8AFDD6"/>
<stop offset="1" stop-color="#8E8CFE"/>
</linearGradient>
<linearGradient id="paint7_linear_1_14572" x1="17.4798" y1="19.9297" x2="17.4798" y2="22.9458" gradientUnits="userSpaceOnUse">
<stop stop-color="#8AFDD6"/>
<stop offset="1" stop-color="#8E8CFE"/>
</linearGradient>
<linearGradient id="paint8_linear_1_14572" x1="52.6451" y1="31.7188" x2="52.6451" y2="34.5978" gradientUnits="userSpaceOnUse">
<stop stop-color="#8AFDD6"/>
<stop offset="1" stop-color="#8E8CFE"/>
</linearGradient>
<linearGradient id="paint9_linear_1_14572" x1="17.4798" y1="31.7188" x2="17.4798" y2="34.5978" gradientUnits="userSpaceOnUse">
<stop stop-color="#8AFDD6"/>
<stop offset="1" stop-color="#8E8CFE"/>
</linearGradient>
</defs>
</svg>
