<svg width="110" height="111" viewBox="0 0 110 111" fill="none" xmlns="http://www.w3.org/2000/svg">
<mask id="mask0_1_10251" style="mask-type:alpha" maskUnits="userSpaceOnUse" x="0" y="0" width="110" height="111">
<rect y="0.460938" width="110" height="110" fill="#D9D9D9"/>
</mask>
<g mask="url(#mask0_1_10251)">
<circle cx="83.4383" cy="47.4252" r="4.01896" fill="#B9B9B9"/>
<path d="M86.2983 71.8749C86.2983 70.9389 86.1974 69.9926 85.9823 68.9713L91.1109 65.9071L85.9991 57.0733L80.9042 60.1204C79.5331 58.959 77.9401 58.0503 76.2126 57.4354V51.3857H66.1304V57.4354C64.3996 58.0503 62.8099 58.959 61.4388 60.1204L56.3438 57.0733L51.2321 65.9071L56.3607 68.9713C56.1489 69.9926 56.0447 70.9389 56.0447 71.8749C56.0447 72.8108 56.1456 73.7571 56.3607 74.7785L51.2321 77.8426L56.3438 86.6764L61.4388 83.6293C62.8099 84.7908 64.4029 85.6994 66.1304 86.3143V92.364H76.2126V86.3143C77.9434 85.6994 79.5331 84.7908 80.9042 83.6293L85.9991 86.6764L91.1109 77.8426L85.9823 74.7785C86.1941 73.7571 86.2983 72.8108 86.2983 71.8749ZM86.51 79.0587L84.8061 82.0033L80.3329 79.2842C78.508 81.6071 75.8799 83.2126 72.8552 83.6601V88.9583H69.4945V83.6601C66.4866 83.216 63.8719 81.6275 62.0471 79.3252L57.5403 82.0033L55.8364 79.0587L60.2995 76.4079C59.7315 75.0073 59.4089 73.4804 59.4089 71.8749C59.4089 70.2898 59.7281 68.78 60.2827 67.3931L55.833 64.691L57.5369 61.7464L62.0101 64.4655C63.835 62.1427 66.4631 60.5371 69.4878 60.0896V54.7914H72.8485V60.0896C75.8833 60.5371 78.5181 62.1495 80.343 64.4826L84.8027 61.743L86.5066 64.6876L82.0671 67.4136C82.6149 68.7936 82.9341 70.2932 82.9341 71.8714C82.9341 73.4599 82.6149 74.9663 82.0603 76.3532L86.51 79.0553V79.0587ZM71.2085 34.3637L71.1749 44.54L74.5356 44.5537L74.5894 29.0689L42.6589 10.5234L10.7317 29.0689V70.2625L42.6622 88.7807L44.2888 87.831L44.2821 50.0808L71.2085 34.3637ZM14.0924 68.2778V34.5721L40.9247 50.0876L40.9751 83.8719L14.0924 68.2778ZM42.5984 47.1259L14.4453 30.8452L42.6589 14.4553L70.6808 30.7359L42.5984 47.1259ZM71.1749 65.0429C67.4679 65.0429 64.4534 68.107 64.4534 71.8749C64.4534 75.6427 67.4679 78.7069 71.1749 78.7069C74.8818 78.7069 77.8964 75.6427 77.8964 71.8749C77.8964 68.107 74.8818 65.0429 71.1749 65.0429ZM71.1749 75.2909C69.3197 75.2909 67.8141 73.7571 67.8141 71.8749C67.8141 69.9926 69.3197 68.4589 71.1749 68.4589C73.03 68.4589 74.5356 69.9926 74.5356 71.8749C74.5356 73.7571 73.03 75.2909 71.1749 75.2909Z" fill="url(#paint0_linear_1_10251)"/>
<path d="M52.4235 92.2288C52.1475 92.2367 51.9301 92.4669 51.9381 92.743L52.0675 97.2411C52.0754 97.5171 52.3056 97.7344 52.5816 97.7265C52.8577 97.7186 53.075 97.4884 53.0671 97.2123L52.952 93.214L56.9504 93.099C57.2264 93.091 57.4437 92.8608 57.4358 92.5848C57.4279 92.3088 57.1977 92.0914 56.9216 92.0994L52.4235 92.2288ZM99.3795 72.2684C99.3795 87.5295 87.0079 99.9011 71.7468 99.9011V100.901C87.5602 100.901 100.38 88.0818 100.38 72.2684H99.3795ZM84.0249 47.5064C93.1263 52.0281 99.3795 61.4185 99.3795 72.2684H100.38C100.38 61.0243 93.8981 51.2949 84.4698 46.6108L84.0249 47.5064ZM71.7468 99.9011C64.4036 99.9011 57.7304 97.0375 52.7811 92.365L52.0946 93.0921C57.2221 97.9329 64.1384 100.901 71.7468 100.901V99.9011Z" fill="#B9B9B9"/>
<path d="M33.7494 51.809L21.6925 44.8672V56.0107M21.6925 56.0107V67.1541L33.7494 74.096V62.4045L21.6925 56.0107Z" stroke="#B9B9B9"/>
<path d="M36.3069 26.9648C36.5992 26.6725 42.7616 23.1894 45.8062 21.4844" stroke="#B9B9B9"/>
<path d="M48.7291 28.4258L34.8455 30.2526" stroke="#B9B9B9"/>
<path d="M45.4409 31.3477L49.8252 34.1661L45.4409 36.9846L41.0566 34.1661L35.9415 36.9846L41.0566 40.1163" stroke="#B9B9B9"/>
</g>
<defs>
<linearGradient id="paint0_linear_1_10251" x1="50.9213" y1="10.5234" x2="50.9213" y2="92.364" gradientUnits="userSpaceOnUse">
<stop stop-color="#8AFDD6"/>
<stop offset="1" stop-color="#8E8CFE"/>
</linearGradient>
</defs>
</svg>
