<svg width="115" height="81" viewBox="0 0 115 81" fill="none" xmlns="http://www.w3.org/2000/svg">
<path d="M51.062 0H55.586L59.24 0.87L62.024 1.914L64.46 3.132L66.548 4.35L66.722 4.698V6.09L65.504 7.482L64.286 8.874L63.938 9.048H57.5L54.542 9.918L52.628 11.136L50.714 13.05L51.062 13.746L52.28 14.964V16.53L51.062 17.922L50.018 18.792L48.974 20.01L50.714 21.402L52.976 23.142L55.412 25.23L100.652 70.47L101 71.514V74.298L100.304 75.69L96.128 79.866L94.91 80.388H92.3L90.908 79.692L45.146 33.93L43.58 32.016L41.144 28.71L40.97 28.362L40.274 28.71L37.49 31.494L37.142 31.668H35.75L34.532 30.798L34.01 30.624H32.792L31.748 31.146L30.878 32.19L30.704 32.538V33.93L31.748 35.67V37.062L30.53 38.454L29.138 39.846L28.268 40.542L27.05 41.934L26.354 42.456H24.962L23.57 41.238L14.174 31.842L14 31.494V29.928L14.522 29.058H14.87L15.218 28.362L17.48 26.1L19.22 24.708L20.438 24.534L20.96 24.708L21.656 25.404L22.526 25.752L24.092 25.578L25.136 24.882L25.658 24.012L25.832 22.62L25.31 21.402L24.614 20.358V19.314L25.832 17.922L28.79 14.964L30.008 13.572L31.922 11.658L33.314 10.44L35.924 7.83L37.142 6.438L39.23 4.35L40.1 4.002L41.492 4.176L42.362 5.046L43.058 4.872L45.494 2.436L47.408 1.218L49.496 0.348L51.062 0ZM51.584 3.132L48.974 3.828L47.06 5.22L44.972 7.308L45.32 8.004L48.278 10.962L49.496 9.918L51.236 8.178L52.976 7.134L55.412 6.264L57.326 5.916L62.546 5.742L61.85 5.22L59.066 4.002L56.978 3.48L55.238 3.132H51.584ZM40.448 7.83L37.664 10.614L36.272 11.832L33.662 14.616L30.356 17.922L28.964 19.14L28.442 19.662L28.79 20.358L36.272 27.84L36.968 27.492L39.752 24.708L40.622 23.838L44.276 20.184L45.32 18.966L46.712 17.748L48.626 15.834L47.582 14.616L40.796 7.83H40.448ZM46.364 22.446L43.58 25.23L43.058 25.578V26.1H43.406L43.754 26.97L45.842 29.754L47.756 32.016L50.192 34.626L92.474 76.908L92.996 77.256H94.214L95.606 76.038L97.868 73.776L98.042 73.428V72.384L96.824 70.992L53.15 27.318L51.758 26.1L48.8 23.838L46.712 22.446H46.364ZM28.616 24.708L27.572 26.796L26.354 27.84L24.788 28.536L25.832 29.754L27.572 31.494H27.92L28.79 29.754L29.312 28.884L31.052 27.84L31.574 27.492L30.008 25.926L28.964 24.708H28.616ZM19.916 28.362L17.654 30.624L18.698 31.842L25.658 38.802L26.876 37.758L28.094 36.54L27.746 35.844L24.44 32.538L23.048 31.32L21.83 30.102L20.612 28.71L19.916 28.362Z" fill="url(#paint0_linear_1_10607)"/>
<path d="M49.8439 42.457L50.8879 42.631L51.5839 43.327V44.719L50.3659 46.111L31.0519 65.425L32.0959 66.643L33.8359 68.383V68.731L34.3579 68.905V69.253L35.0539 69.601L36.4459 70.993L36.9679 70.819L38.0119 69.601L39.4039 68.383L43.2319 64.555L44.4499 63.163L47.2339 60.553L50.5399 57.247L51.7579 55.855L54.3679 53.419L57.1519 50.635H58.5439L59.2399 51.331L59.4139 52.549L58.8919 53.419L57.3259 54.811L56.1079 56.203L50.7139 61.597L49.8439 62.467L43.4059 68.905L42.5359 69.775L36.2719 76.039L35.4019 76.909L33.1399 79.171L31.7479 80.041L30.1819 80.563H27.0499L25.1359 79.867L23.5699 78.649L22.5259 77.431L21.6559 75.691L21.4819 72.907L21.8299 70.819L22.8739 69.079L49.3219 42.631L49.8439 42.457ZM28.4419 67.861L25.4839 70.819L24.6139 72.385V74.473L25.3099 75.865L26.7019 77.083L27.5719 77.431H29.8339L31.3999 76.561L34.3579 73.603L33.3139 72.385L28.7899 67.861H28.4419Z" fill="url(#paint1_linear_1_10607)"/>
<path d="M98.738 1.04297H100.478L101 1.73897V3.30497L100.13 5.91497L98.216 10.787L96.302 15.659L95.606 16.703L94.214 18.095L93.344 18.965L86.906 25.403L86.036 26.273L79.772 32.537L78.902 33.407L73.856 38.453L73.508 38.627H72.29L71.594 37.931L71.42 37.583V36.539L72.464 35.147L73.334 34.277L76.118 31.667L79.424 28.361L80.294 27.491L81.512 26.099L82.904 24.881L86.732 21.053L87.95 19.661L90.734 17.051L92.3 15.485L91.952 14.789L87.254 10.091L86.732 9.74297L65.678 30.797L64.46 30.971L63.59 30.449L63.416 30.101V28.709L64.634 27.317L85.862 6.08897L88.646 4.87097L92.3 3.65297L96.998 1.73897L98.738 1.04297ZM96.476 5.21897L89.864 7.82897V8.35097L94.04 12.527L94.388 12.005L96.824 5.56697V5.21897H96.476Z" fill="url(#paint2_linear_1_10607)"/>
<path d="M21.5 40.004C1.4588 44.0122 -27.1318 66.2215 62.7431 57.6306C140.618 50.1868 117 28 79.5 32.9997" stroke="#B9B9B9"/>
<circle cx="6.41722" cy="57.4172" r="4.37035" fill="#B9B9B9"/>
<circle cx="73.9848" cy="56.2688" r="4.37035" fill="#B9B9B9"/>
<circle cx="102.615" cy="33.3703" r="4.37035" fill="#B9B9B9"/>
<defs>
<linearGradient id="paint0_linear_1_10607" x1="57.5" y1="0" x2="57.5" y2="80.388" gradientUnits="userSpaceOnUse">
<stop stop-color="#8AFDD6"/>
<stop offset="1" stop-color="#8E8CFE"/>
</linearGradient>
<linearGradient id="paint1_linear_1_10607" x1="40.4479" y1="42.457" x2="40.4479" y2="80.563" gradientUnits="userSpaceOnUse">
<stop stop-color="#8AFDD6"/>
<stop offset="1" stop-color="#8E8CFE"/>
</linearGradient>
<linearGradient id="paint2_linear_1_10607" x1="82.208" y1="1.04297" x2="82.208" y2="38.627" gradientUnits="userSpaceOnUse">
<stop stop-color="#8AFDD6"/>
<stop offset="1" stop-color="#8E8CFE"/>
</linearGradient>
</defs>
</svg>
