<svg width="104" height="97" viewBox="0 0 104 97" fill="none" xmlns="http://www.w3.org/2000/svg">
<path d="M19.9403 12.0024H69.0221L72.5951 15.5755L74.0996 16.8918L76.7323 19.5246L78.0487 21.029L80.4934 23.4737L81.9978 24.7901L84.6305 27.4228L85.9469 28.9272L86.5111 29.4914L86.6991 30.6197V43.0312L89.1438 39.2701L90.4602 37.3896L91.7766 35.8852L93.281 35.133L94.0332 34.9449H96.1018L97.9823 35.6971L100.239 37.2016L102.308 38.706L103.436 40.0224L103.812 40.9626L104 43.0312L103.624 44.7237L102.684 46.2281L100.427 49.6131L99.4867 51.4936L97.7943 54.1263H97.4181L97.042 55.0666L94.0332 59.7679L91.2124 64.2812L88.7677 68.0423L86.8872 70.8631L86.6991 95.8741L86.135 96.8144L85.7589 97.0024H19.9403L19 96.0622V12.9427L19.9403 12.0024ZM21.8208 15.0113V94.1816H83.8783V75.5644L83.3142 76.3166L82.75 77.2569V77.633H82.3739L80.1173 81.206L78.4248 83.8387L75.792 85.1551L72.219 87.0356L66.9535 90.0445L65.2611 89.8564V86.2834L66.0133 76.1285L66.5774 74.8122L69.0221 71.0511V70.675H69.3982L70.5266 68.6064L73.5354 63.9051L75.2279 61.4604L77.6726 57.6993L78.8009 55.6308L80.1173 53.7502L82.75 49.6131L83.6903 48.1086V31.748L68.0819 31.56L67.3296 31.1839L67.1416 30.8078L66.9535 15.0113H21.8208ZM69.7743 17.0799V28.9272H81.6217L80.4934 27.6108L78.8009 26.1064L77.4845 24.602L72.5951 19.7126L71.0907 18.3962L69.9624 17.0799H69.7743ZM94.4093 37.9538L93.0929 38.706L92.3407 40.0224L91.0243 42.279L94.9734 44.9117L98.5465 47.1684L99.2987 46.2281L100.991 43.5954L101.179 42.0909L100.615 40.9626L98.5465 39.4582L97.042 38.5179L95.9137 37.9538H94.4093ZM89.1438 44.9117L88.5797 45.852V46.2281H88.2035L86.323 49.237L84.4425 52.2458L82.1858 55.8188L79.177 60.5201L78.4248 61.6485V62.0246H78.0487L76.7323 64.0932L75.792 65.9737L73.1593 69.9228L70.7146 73.6839L69.5863 75.3763V75.9405L71.6549 77.2569H72.219L74.0996 74.248L76.1681 71.0511V70.675H76.5443L77.6726 68.7945L78.8009 66.7259L80.6814 63.9051L82.9381 60.5201L85.5708 56.383L87.8274 52.81L90.8363 48.1086L91.2124 47.1684H91.5885L91.9646 46.2281L90.4602 45.4759L89.5199 44.9117H89.1438ZM94.2212 48.1086L92.5288 50.7414L91.7766 52.0578L90.8363 53.5622L89.5199 55.4427L86.5111 60.144L85.1947 62.0246L84.0664 64.0932L81.2456 68.4184L79.9292 70.2989L76.9204 75.0002L75.604 77.2569V77.633H75.2279L74.6637 78.5732V79.1374L76.5443 80.2657L77.2965 80.6418L78.6128 78.3852L81.6217 73.6839L83.3142 71.0511V70.675H83.6903L85.3827 68.0423L86.323 66.1617L88.5797 62.7768L90.4602 59.956L92.7168 56.383L95.1615 52.4339L96.854 49.8011L95.9137 48.8608L94.7854 48.1086H94.2212ZM68.646 78.7613L68.2699 83.6507V86.0954L70.1504 85.1551L73.5354 83.2746L74.4757 82.5224L71.6549 80.6418L68.8341 78.7613H68.646Z" fill="black"/>
<path d="M19.9403 12.0024H69.0221L72.5951 15.5755L74.0996 16.8918L76.7323 19.5246L78.0487 21.029L80.4934 23.4737L81.9978 24.7901L84.6305 27.4228L85.9469 28.9272L86.5111 29.4914L86.6991 30.6197V43.0312L89.1438 39.2701L90.4602 37.3896L91.7766 35.8852L93.281 35.133L94.0332 34.9449H96.1018L97.9823 35.6971L100.239 37.2016L102.308 38.706L103.436 40.0224L103.812 40.9626L104 43.0312L103.624 44.7237L102.684 46.2281L100.427 49.6131L99.4867 51.4936L97.7943 54.1263H97.4181L97.042 55.0666L94.0332 59.7679L91.2124 64.2812L88.7677 68.0423L86.8872 70.8631L86.6991 95.8741L86.135 96.8144L85.7589 97.0024H19.9403L19 96.0622V12.9427L19.9403 12.0024ZM21.8208 15.0113V94.1816H83.8783V75.5644L83.3142 76.3166L82.75 77.2569V77.633H82.3739L80.1173 81.206L78.4248 83.8387L75.792 85.1551L72.219 87.0356L66.9535 90.0445L65.2611 89.8564V86.2834L66.0133 76.1285L66.5774 74.8122L69.0221 71.0511V70.675H69.3982L70.5266 68.6064L73.5354 63.9051L75.2279 61.4604L77.6726 57.6993L78.8009 55.6308L80.1173 53.7502L82.75 49.6131L83.6903 48.1086V31.748L68.0819 31.56L67.3296 31.1839L67.1416 30.8078L66.9535 15.0113H21.8208ZM69.7743 17.0799V28.9272H81.6217L80.4934 27.6108L78.8009 26.1064L77.4845 24.602L72.5951 19.7126L71.0907 18.3962L69.9624 17.0799H69.7743ZM94.4093 37.9538L93.0929 38.706L92.3407 40.0224L91.0243 42.279L94.9734 44.9117L98.5465 47.1684L99.2987 46.2281L100.991 43.5954L101.179 42.0909L100.615 40.9626L98.5465 39.4582L97.042 38.5179L95.9137 37.9538H94.4093ZM89.1438 44.9117L88.5797 45.852V46.2281H88.2035L86.323 49.237L84.4425 52.2458L82.1858 55.8188L79.177 60.5201L78.4248 61.6485V62.0246H78.0487L76.7323 64.0932L75.792 65.9737L73.1593 69.9228L70.7146 73.6839L69.5863 75.3763V75.9405L71.6549 77.2569H72.219L74.0996 74.248L76.1681 71.0511V70.675H76.5443L77.6726 68.7945L78.8009 66.7259L80.6814 63.9051L82.9381 60.5201L85.5708 56.383L87.8274 52.81L90.8363 48.1086L91.2124 47.1684H91.5885L91.9646 46.2281L90.4602 45.4759L89.5199 44.9117H89.1438ZM94.2212 48.1086L92.5288 50.7414L91.7766 52.0578L90.8363 53.5622L89.5199 55.4427L86.5111 60.144L85.1947 62.0246L84.0664 64.0932L81.2456 68.4184L79.9292 70.2989L76.9204 75.0002L75.604 77.2569V77.633H75.2279L74.6637 78.5732V79.1374L76.5443 80.2657L77.2965 80.6418L78.6128 78.3852L81.6217 73.6839L83.3142 71.0511V70.675H83.6903L85.3827 68.0423L86.323 66.1617L88.5797 62.7768L90.4602 59.956L92.7168 56.383L95.1615 52.4339L96.854 49.8011L95.9137 48.8608L94.7854 48.1086H94.2212ZM68.646 78.7613L68.2699 83.6507V86.0954L70.1504 85.1551L73.5354 83.2746L74.4757 82.5224L71.6549 80.6418L68.8341 78.7613H68.646Z" fill="url(#paint0_linear_4042_101)"/>
<path d="M30.8474 48.4868H74.8518L75.7921 48.8629L76.1682 49.4271V50.7435L75.416 51.4957H30.2832L29.7191 50.9315L29.531 49.8032L30.0952 48.8629L30.8474 48.4868Z" fill="black"/>
<path d="M30.8474 48.4868H74.8518L75.7921 48.8629L76.1682 49.4271V50.7435L75.416 51.4957H30.2832L29.7191 50.9315L29.531 49.8032L30.0952 48.8629L30.8474 48.4868Z" fill="url(#paint1_linear_4042_101)"/>
<path d="M30.6593 37.7681H75.0399L75.9801 38.3322L76.1682 38.5203V39.8367L75.416 40.5889H30.2832L29.7191 40.0247L29.531 39.0844L29.9071 38.1442L30.6593 37.7681Z" fill="black"/>
<path d="M30.6593 37.7681H75.0399L75.9801 38.3322L76.1682 38.5203V39.8367L75.416 40.5889H30.2832L29.7191 40.0247L29.531 39.0844L29.9071 38.1442L30.6593 37.7681Z" fill="url(#paint2_linear_4042_101)"/>
<path d="M18.2425 37.0363C4.46656 46.7904 -9.64854 73.1486 55.281 36.4873C111.541 4.7211 86.2704 -4.08916 59.6539 12.2754" stroke="#B9B9B9"/>
<circle cx="12.7092" cy="55.2388" r="3.60941" transform="rotate(-23.9903 12.7092 55.2388)" fill="#B9B9B9"/>
<circle cx="63.306" cy="31.6919" r="3.60941" transform="rotate(-23.9903 63.306 31.6919)" fill="#B9B9B9"/>
<circle cx="77.2197" cy="4.79346" r="3.60941" transform="rotate(-23.9903 77.2197 4.79346)" fill="#B9B9B9"/>
<defs>
<linearGradient id="paint0_linear_4042_101" x1="61.5" y1="12.0024" x2="61.5" y2="97.0024" gradientUnits="userSpaceOnUse">
<stop stop-color="#8AFDD6"/>
<stop offset="1" stop-color="#8E8CFE"/>
</linearGradient>
<linearGradient id="paint1_linear_4042_101" x1="52.8496" y1="48.4868" x2="52.8496" y2="51.4957" gradientUnits="userSpaceOnUse">
<stop stop-color="#8AFDD6"/>
<stop offset="1" stop-color="#8E8CFE"/>
</linearGradient>
<linearGradient id="paint2_linear_4042_101" x1="52.8496" y1="37.7681" x2="52.8496" y2="40.5889" gradientUnits="userSpaceOnUse">
<stop stop-color="#8AFDD6"/>
<stop offset="1" stop-color="#8E8CFE"/>
</linearGradient>
</defs>
</svg>
