<svg width="68" height="69" viewBox="0 0 68 69" fill="none" xmlns="http://www.w3.org/2000/svg">
<path d="M57.837 0.460938H60.4239L64.3044 2.12398L66.5217 3.41746L67.6304 4.71094L68 5.81963V8.22181L66.7065 11.1783L64.6739 15.6131L64.3044 16.7218L60.7935 24.4827L59.1304 27.9935L56.913 32.9827L55.6196 36.124L53.0326 41.8522L51.9239 44.0696L50.6304 47.0261L48.0435 48.874L46.3804 49.9827L42.8696 52.3848L41.2065 53.6783H39.7283L39.1739 52.9392L38.6196 48.6892V47.5805H18.4783L17.7391 47.0261V45.5479L18.4783 44.9935H38.25L37.8804 42.7761V40.7435L39.5435 37.0479L0.554348 36.8631L0 36.3088V35.0153L0.554348 34.6457H40.837L41.2065 33.537L42.3152 30.7653L43.9783 27.0696L44.3478 26.3305H26.2391L26.0543 25.9609V24.4827L26.4239 24.1131L45.4565 23.9283L47.3043 19.6783L48.5978 17.0914L49.7065 14.5044L50.4457 12.6566L53.4022 6.1892L55.25 2.30876L56.7283 1.01529L57.837 0.460938ZM58.7609 2.86311L57.4674 3.41746L56.7283 4.52615L55.9891 6.55876L55.25 8.40659L59.8696 10.624L63.0109 11.9175H63.75L65.2283 8.77615L65.5978 7.48268L65.413 6.00442L64.8587 5.0805L61.3478 3.41746L59.5 2.86311H58.7609ZM54.1413 10.624L51.7391 15.7979L50.4457 18.7544L49.1522 21.5262L48.0435 24.2979L45.4565 29.8414L43.6087 34.0914L42.3152 36.6783L41.3913 38.7109L41.0217 40.1892L43.7935 40.7435H44.3478L46.75 35.5696L49.1522 30.3957L51 25.9609L53.9565 19.4935L56.3587 14.3196L57.2826 11.9175L55.4348 10.9935L54.1413 10.624ZM59.3152 13.0262L56.913 18.3848L55.6196 21.5262L53.4022 26.3305L50.4457 32.7979L48.9674 35.9392L48.413 37.6022L46.5652 41.8522L48.7826 43.5153L49.337 43.8848L50.2609 41.8522L53.2174 35.2001L55.0652 31.3196L56.7283 27.624L57.4674 26.1457L58.0217 24.4827L60.2391 19.4935L61.3478 17.2762L62.4565 14.6892L62.2717 14.1348L59.8696 13.0262H59.3152ZM40.4674 42.4066L40.6522 44.8088L41.3913 50.3522L42.1304 49.9827L45.4565 47.5805L47.6739 46.1022L47.3043 45.3631L45.4565 43.8848L43.0543 42.7761L41.3913 42.4066H40.4674Z" fill="black"/>
<path d="M57.837 0.460938H60.4239L64.3044 2.12398L66.5217 3.41746L67.6304 4.71094L68 5.81963V8.22181L66.7065 11.1783L64.6739 15.6131L64.3044 16.7218L60.7935 24.4827L59.1304 27.9935L56.913 32.9827L55.6196 36.124L53.0326 41.8522L51.9239 44.0696L50.6304 47.0261L48.0435 48.874L46.3804 49.9827L42.8696 52.3848L41.2065 53.6783H39.7283L39.1739 52.9392L38.6196 48.6892V47.5805H18.4783L17.7391 47.0261V45.5479L18.4783 44.9935H38.25L37.8804 42.7761V40.7435L39.5435 37.0479L0.554348 36.8631L0 36.3088V35.0153L0.554348 34.6457H40.837L41.2065 33.537L42.3152 30.7653L43.9783 27.0696L44.3478 26.3305H26.2391L26.0543 25.9609V24.4827L26.4239 24.1131L45.4565 23.9283L47.3043 19.6783L48.5978 17.0914L49.7065 14.5044L50.4457 12.6566L53.4022 6.1892L55.25 2.30876L56.7283 1.01529L57.837 0.460938ZM58.7609 2.86311L57.4674 3.41746L56.7283 4.52615L55.9891 6.55876L55.25 8.40659L59.8696 10.624L63.0109 11.9175H63.75L65.2283 8.77615L65.5978 7.48268L65.413 6.00442L64.8587 5.0805L61.3478 3.41746L59.5 2.86311H58.7609ZM54.1413 10.624L51.7391 15.7979L50.4457 18.7544L49.1522 21.5262L48.0435 24.2979L45.4565 29.8414L43.6087 34.0914L42.3152 36.6783L41.3913 38.7109L41.0217 40.1892L43.7935 40.7435H44.3478L46.75 35.5696L49.1522 30.3957L51 25.9609L53.9565 19.4935L56.3587 14.3196L57.2826 11.9175L55.4348 10.9935L54.1413 10.624ZM59.3152 13.0262L56.913 18.3848L55.6196 21.5262L53.4022 26.3305L50.4457 32.7979L48.9674 35.9392L48.413 37.6022L46.5652 41.8522L48.7826 43.5153L49.337 43.8848L50.2609 41.8522L53.2174 35.2001L55.0652 31.3196L56.7283 27.624L57.4674 26.1457L58.0217 24.4827L60.2391 19.4935L61.3478 17.2762L62.4565 14.6892L62.2717 14.1348L59.8696 13.0262H59.3152ZM40.4674 42.4066L40.6522 44.8088L41.3913 50.3522L42.1304 49.9827L45.4565 47.5805L47.6739 46.1022L47.3043 45.3631L45.4565 43.8848L43.0543 42.7761L41.3913 42.4066H40.4674Z" fill="url(#paint0_linear_1_14583)"/>
<path d="M0.554348 66.0586H67.4457L68 66.6129V67.9064L67.4457 68.4608H0.554348L0 67.9064V66.6129L0.554348 66.0586Z" fill="black"/>
<path d="M0.554348 66.0586H67.4457L68 66.6129V67.9064L67.4457 68.4608H0.554348L0 67.9064V66.6129L0.554348 66.0586Z" fill="url(#paint1_linear_1_14583)"/>
<path d="M0.369565 55.7109H67.4457L68 56.2653V57.374L67.4457 57.9283H0.554348L0 57.374V56.2653L0.369565 55.7109Z" fill="black"/>
<path d="M0.369565 55.7109H67.4457L68 56.2653V57.374L67.4457 57.9283H0.554348L0 57.374V56.2653L0.369565 55.7109Z" fill="url(#paint2_linear_1_14583)"/>
<path d="M0.554348 24.1133H21.6196L22.1739 24.8524L21.9891 26.1459L21.8043 26.3307H0.369565L0 25.9611V24.6676L0.554348 24.1133Z" fill="black"/>
<path d="M0.554348 24.1133H21.6196L22.1739 24.8524L21.9891 26.1459L21.8043 26.3307H0.369565L0 25.9611V24.6676L0.554348 24.1133Z" fill="url(#paint3_linear_1_14583)"/>
<path d="M0.73913 44.9922H13.3043L14.2283 45.9161L14.0435 47.0248L13.3043 47.5791H0.73913L0 47.0248V45.5465L0.73913 44.9922Z" fill="black"/>
<path d="M0.73913 44.9922H13.3043L14.2283 45.9161L14.0435 47.0248L13.3043 47.5791H0.73913L0 47.0248V45.5465L0.73913 44.9922Z" fill="url(#paint4_linear_1_14583)"/>
<defs>
<linearGradient id="paint0_linear_1_14583" x1="34" y1="0.460937" x2="34" y2="53.6783" gradientUnits="userSpaceOnUse">
<stop stop-color="#8AFDD6"/>
<stop offset="1" stop-color="#8E8CFE"/>
</linearGradient>
<linearGradient id="paint1_linear_1_14583" x1="34" y1="66.0586" x2="34" y2="68.4608" gradientUnits="userSpaceOnUse">
<stop stop-color="#8AFDD6"/>
<stop offset="1" stop-color="#8E8CFE"/>
</linearGradient>
<linearGradient id="paint2_linear_1_14583" x1="34" y1="55.7109" x2="34" y2="57.9283" gradientUnits="userSpaceOnUse">
<stop stop-color="#8AFDD6"/>
<stop offset="1" stop-color="#8E8CFE"/>
</linearGradient>
<linearGradient id="paint3_linear_1_14583" x1="11.087" y1="24.1133" x2="11.087" y2="26.3307" gradientUnits="userSpaceOnUse">
<stop stop-color="#8AFDD6"/>
<stop offset="1" stop-color="#8E8CFE"/>
</linearGradient>
<linearGradient id="paint4_linear_1_14583" x1="7.11413" y1="44.9922" x2="7.11413" y2="47.5791" gradientUnits="userSpaceOnUse">
<stop stop-color="#8AFDD6"/>
<stop offset="1" stop-color="#8E8CFE"/>
</linearGradient>
</defs>
</svg>
