<svg width="72" height="72" viewBox="0 0 72 72" fill="none" xmlns="http://www.w3.org/2000/svg">
<path d="M27.0294 1H29.0882L32.1765 1.29412L35.5588 2.02941L39.0882 3.35294L41.8824 4.82353L42.9118 5.55882L43.7941 6L45.8529 7.61765L47.9118 9.67647L49.2353 11.2941L50.1176 12.3235L51.7353 14.9706L52.9118 17.3235L54.0882 20.4118L54.5294 22.9118L54.8235 24.5294L54.9706 26.1471V29.8235L54.6765 32.4706L53.9412 36L52.9118 38.7941L51.7353 41.1471L50.4118 43.2059L49.0882 44.9706L47.3235 47.0294L46.5882 47.7647L44.6765 49.3824L44.3824 49.6765L47.9118 53.2059L48.9412 54.3824L50.4118 55.7059L54.0882 59.3824L55.1176 60.5588L56.5882 61.8824L60.2647 65.5588L61.2941 66.7353L62.7647 67.9118L63.7941 68.3529L64.9706 68.5L66.2941 68.2059L67.6177 67.3235L68.3529 66L68.5 64.3824L67.9118 62.7647L66.2941 60.8529L64.3824 59.0882L60.8529 55.5588L59.8235 54.3824L58.3529 53.0588L54.6765 49.3824L53.6471 48.2059L52.1765 46.8824L51.4412 46.1471L51.5882 45.5588L52.7647 44.3824L53.3529 44.5294L55.5588 46.8824L57.1765 48.5L58.3529 49.5294L60.2647 51.4412L61.2941 52.6176L63.2059 54.5294L64.3824 55.5588L66.2941 57.4706L67.3235 58.6471L69.3824 60.7059L69.9706 61.2941L70.7059 62.7647L71 64.3824L70.8529 66.2941L70.1177 68.0588L68.7941 69.5294L67.4706 70.4118L66.2941 70.8529L64.3824 71L62.7647 70.7059L61.2941 69.9706L60.5588 69.2353L57.7647 66.4412L56.5882 65.4118L54.6765 63.5L53.6471 62.3235L51.7353 60.4118L50.5588 59.3824L48.6471 57.4706L47.6176 56.2941L45.5588 54.2353L44.3824 53.2059L42.4706 51.2941V51L41.1471 51.7353L38.7941 52.9118L36 53.9412L32.4706 54.6765L29.8235 54.9706H26.1471L23.6471 54.6765L21.5882 54.2353L19.9706 53.9412L17.3235 52.9118L14.9706 51.7353L12.7647 50.4118L10.8529 48.7941L9.23529 47.4706L7.32353 45.5588L5.70588 43.3529L4.97059 42.0294L4.08824 40.5588L2.91176 38.0588L1.88235 34.9706L1.29412 32.1765L1 29.0882V26.8824L1.29412 23.9412L2.02941 20.5588L2.91176 17.9118L4.08824 15.5588L5.26471 13.5L6.58824 11.5882L7.91177 9.97059L10.4118 7.47059L12.3235 6H12.6176V5.70588L13.7941 5.11765L15.8529 3.94118L18.7941 2.61765L21.7353 1.73529L24.9706 1.14706L27.0294 1ZM26.5882 3.35294L24.0882 3.64706L21 4.38235L18.2059 5.26471L15.7059 6.58824L13.5 8.05882L12.0294 9.23529L10.4118 10.7059L9.38235 11.8824L8.35294 13.0588L6.88235 15.2647L5.11765 18.5L4.38235 21L3.64706 23.9412L3.35294 26.5882V29.5294L3.79412 32.7647L4.52941 35.5588L5.26471 37.7647L6.44118 40.1176L7.76471 42.3235L8.20588 42.4706L8.5 43.0588L9.82353 44.6765L11 45.8529L11.7353 46.7353L14.2353 48.6471L15.7059 49.3824L18.0588 50.7059L20.8529 51.7353L23.7941 52.4706L26 52.7647H30.1176L33.6471 52.1765L36.1471 51.4412L38.7941 50.2647L41 49.0882L42.4706 48.2059L44.5294 46.4412L45.8529 45.2647L46.8824 44.0882L48.2059 42.4706L48.7941 41.4412L49.9706 39.3824L51.1471 36.8824L52.0294 34.2353L52.6176 31.2941L52.7647 30.1176V26.1471L52.3235 23.2059L51.5882 20.4118L50.4118 17.4706L49.0882 15.1176L48.2059 13.6471L46.8824 12.0294L46.1471 11.1471L44.9706 10.1176L43.5 8.79412L42.7647 8.20588H42.4706V7.91177L40.1176 6.44118L37.7647 5.26471L34.0882 4.08824L31 3.5L29.5294 3.35294H26.5882Z" fill="url(#paint0_linear_1_14544)" stroke="url(#paint1_linear_1_14544)" stroke-width="0.4"/>
<path d="M25.5579 7H29.4421L32.1754 7.44211L35.0526 8.32632L37.3544 9.50526L39.0807 10.5368L41.3825 12.3053L42.8211 13.7789L44.4035 15.8421L45.8421 18.2L46.7053 19.9684L46.993 20.7053L47.8561 24.5368L48 25.5684V30.4316L47.5684 32.9368L46.8491 35.7368L45.5544 38.5368L44.4035 40.3053L43.2526 41.7789L40.5193 44.5789L38.6491 45.9053L36.3474 47.2316L34.6211 47.9684L30.8807 48.8526L29.8737 49H25.1263L22.2491 48.4105L20.0912 47.8211L17.7895 46.7895L16.4947 45.9053L14.4807 44.4316L12.3228 42.3684L10.7404 40.3053L9.58947 38.3895L8.4386 36.0316L7.57544 33.3789L7.14386 31.3158L7 30.1368V26.0105L7.43158 23.3579L8.29474 20.4105L9.44561 17.9053L10.8842 15.6947L11.6035 14.8105L12.0351 14.0737L13.0421 12.8947L14.193 11.8632L14.9123 11.4211L16.7825 10.0947L18.7965 8.91579L20.9544 8.03158L23.6877 7.29474L25.5579 7ZM25.5579 9.35789L22.6807 9.94737L19.9474 10.9789L18.9404 11.4211L17.214 12.4526L15.2 14.2211L13.4737 15.9895L12.0351 17.9053L11.0281 19.6737L10.0211 22.6211L9.44561 24.9789L9.30175 26.0105V30.1368L9.87719 33.0842L11.0281 36.3263L12.1789 38.3895L13.6175 40.3053L14.6246 41.4842L16.207 42.8105L17.7895 43.9895L20.5228 45.4632L23.1123 46.3474L25.2702 46.7895L26.8526 46.9368H28.2912L30.7368 46.6421L33.4702 45.9053L35.7719 44.8737L37.9298 43.5474L40.2316 41.7789L41.2386 40.7474L43.2526 37.8L44.5474 35.2947L45.4105 32.6421L45.8421 30.2842L45.986 28.8105L45.8421 25.7158L45.2667 23.0632L44.5474 20.8526L43.1088 18.0526L42.1018 16.5789L41.814 16.4316L41.3825 15.6947L39.2246 13.4842L36.9228 11.8632L34.9088 10.8316L31.8877 9.8L29.586 9.35789H25.5579Z" fill="url(#paint2_linear_1_14544)" stroke="url(#paint3_linear_1_14544)" stroke-width="0.4"/>
<defs>
<linearGradient id="paint0_linear_1_14544" x1="36" y1="1" x2="36" y2="71" gradientUnits="userSpaceOnUse">
<stop stop-color="#8AFDD6"/>
<stop offset="1" stop-color="#8E8CFE"/>
</linearGradient>
<linearGradient id="paint1_linear_1_14544" x1="36" y1="1" x2="36" y2="71" gradientUnits="userSpaceOnUse">
<stop stop-color="#8AFDD6"/>
<stop offset="1" stop-color="#8E8CFE"/>
</linearGradient>
<linearGradient id="paint2_linear_1_14544" x1="27.5" y1="7" x2="27.5" y2="49" gradientUnits="userSpaceOnUse">
<stop stop-color="#8AFDD6"/>
<stop offset="1" stop-color="#8E8CFE"/>
</linearGradient>
<linearGradient id="paint3_linear_1_14544" x1="27.5" y1="7" x2="27.5" y2="49" gradientUnits="userSpaceOnUse">
<stop stop-color="#8AFDD6"/>
<stop offset="1" stop-color="#8E8CFE"/>
</linearGradient>
</defs>
</svg>
