<svg width="116" height="87" viewBox="0 0 116 87" fill="none" xmlns="http://www.w3.org/2000/svg">
<path d="M30.7416 0.460938H86.3256L88.3907 0.977197L90.2836 2.00972L92.1766 3.73058L93.7253 6.1398L94.0695 7.00023L94.4137 9.58153L98.1996 9.40944L101.641 8.7211L104.911 7.68858L106.804 6.82814H107.836L108.697 7.68858V10.2699L108.181 13.8837L106.976 18.1859L105.599 21.2834L104.223 23.5205L102.846 25.2414L101.125 26.9623L100.265 27.3065V27.6506L98.0275 28.6831L95.4462 29.3715L90.7999 31.0924L87.5302 32.8132L86.1535 34.0178L85.9814 66.3701L87.7023 66.7143L90.1115 67.9189L92.1766 69.8119L93.3812 71.7048L94.0695 73.2536L94.4137 75.6628V77.3837L94.0695 79.7929L92.8649 82.2021L91.3161 83.923L89.9394 85.1276L87.8744 86.1601L86.1535 86.5043H30.7416L28.6766 85.988L26.7836 84.9555L25.0628 83.4067L23.8582 81.8579L22.9977 80.1371L22.6536 78.4162V8.54901L23.1698 6.48397L24.2023 4.59102L25.7511 2.87015L27.2999 1.66554L29.0208 0.805111L30.7416 0.460938ZM31.2579 3.5585L29.537 4.24684L27.6441 5.62354L26.2674 7.51649L25.7511 9.06527V77.8999L26.4395 79.7929L27.8162 81.5137L29.7091 82.8904L31.2579 83.4067H34.0113L35.9042 82.7184L37.453 81.6858L38.3134 80.6533L39.1739 79.2766L39.6901 77.3837V75.6628L39.0018 73.4257L37.9693 71.8769L36.4205 70.5002L35.0438 69.8119L32.1183 69.2956L31.43 68.9514L31.2579 68.6072V67.0585L31.43 66.5422L32.1183 66.3701L82.7118 66.198V37.9758L82.1955 38.6642L80.6468 41.2455L79.098 43.1384L78.5817 43.6547V43.9989L77.8934 44.343L76.3446 45.7197L73.7633 47.2685L71.8703 48.1289L69.4611 48.8173L68.4286 48.9894H63.7823L61.201 48.301L60.3405 48.1289L59.9964 49.3335L59.6522 52.259L59.4801 54.8403L58.9638 55.7007L57.243 57.0774L55.35 58.282L53.1129 60.0029L51.9083 60.6913H35.0438L34.1834 60.0029V58.4541L34.8717 57.9379L50.1874 57.7658L51.7362 52.7753L52.4246 50.5382L53.9733 46.9243L55.5221 43.9989L55.8663 43.1384L55.0059 40.5571L54.4896 38.1479L54.3175 36.427V32.9853L54.8338 29.7157L56.0384 26.1018L57.4151 23.3485L58.6197 21.4555L58.9638 20.7672L32.1183 20.5951L31.43 20.423L31.2579 19.9067V18.3579L31.9462 17.6696L34.3555 17.3254L36.4205 16.465L38.1414 14.9162L39.1739 13.1953L39.6901 11.3024V9.58153L39.0018 7.3444L37.9693 5.96771L37.2809 5.10728L35.5601 4.07476L34.0113 3.5585H31.2579ZM40.3785 3.5585L41.0668 4.7631L41.7552 5.79562L42.6156 8.20484L42.7877 9.06527V11.8187L42.2714 14.0558L41.0668 16.2929L40.2064 17.4975H61.5451L63.6102 15.4325L64.6427 14.7441L66.0194 13.7116V13.3674L66.8798 13.0233L69.289 11.6466L72.2145 10.442L74.6237 9.75362L79.098 9.23736H86.1535L91.1441 9.58153L90.972 8.20484L90.2836 6.82814L88.5628 4.93519L86.8419 3.90267L85.6373 3.5585H40.3785ZM105.083 11.1303L101.469 12.1628L98.1996 12.6791H88.2186L86.8419 13.8837L85.6373 15.6046L85.121 16.1208H83.5722L82.8839 15.4325V14.2279L83.9164 12.3349H78.9259L77.3771 12.507L76.6888 13.7116L76.0004 15.6046L75.6562 18.3579L74.9679 19.0463H73.4191L72.9029 18.1859V16.2929L73.247 14.4V13.5395L71.6983 14.0558L69.9774 14.7441L67.5682 16.2929L65.3311 18.1859L64.1264 19.5626V23.3485L64.2985 24.2089V25.4135L63.4381 26.2739H62.2335L61.3731 25.4135L61.0289 23.6926L60.3405 24.381L59.308 26.1018L58.1034 29.0273L57.5872 32.1249L57.4151 33.8457V35.9108L57.7592 38.4921L58.1034 39.6967L58.7918 38.8363L59.9964 37.1154V36.7712L60.6847 36.427L62.0614 34.7062L63.6102 32.9853L64.8148 31.6086L68.7728 27.6506L70.6657 26.1018L73.4191 24.0368L75.8283 22.488L80.6468 20.2509L83.9164 19.0463L89.2511 17.6696L94.2416 16.8092H96.3066L96.995 17.4975V18.8742L96.3066 19.5626L92.6928 20.2509L88.3907 21.1113L85.2931 21.7997L81.8514 23.0043L78.9259 24.381L76.0004 26.1018L73.5912 27.8227L70.8378 30.0598L67.9123 32.8132L66.0194 34.8783L63.7823 37.4596L62.7498 39.0083L61.0289 44.1709L61.201 44.8593L63.6102 45.7197L65.6752 46.0639L68.0844 45.8918L70.6657 45.2035L73.5912 43.8268L75.14 42.6222L74.7958 42.278L71.8703 41.5896L69.117 40.5571L68.6007 40.0409V38.32L69.117 37.8037L70.3216 37.6317L73.5912 38.8363L76.5167 39.3525H78.0655L79.2701 37.6317L80.4747 35.5666L81.163 34.362L82.7118 32.6411L83.5722 31.6086L81.6793 30.2319L81.3351 29.3715L81.5072 28.339L82.0235 27.8227H83.5722L85.4652 29.0273L86.6698 29.3715L87.5302 29.1994L90.4557 27.8227L94.7579 26.2739L97.6833 25.2414L99.4042 24.0368L101.469 21.9718L101.986 21.2834L102.502 20.0788L103.706 17.3254L104.739 14.0558L105.255 11.8187L105.083 11.1303ZM56.8988 48.301L55.35 51.5707L54.3175 54.4961V55.0124L55.1779 54.6682L56.5546 53.6357L57.0709 48.301H56.8988ZM40.2064 69.4677L41.2389 71.0165L42.4435 73.4257L42.7877 75.1465V77.8999L42.0994 80.3091L41.2389 82.03L40.3785 83.2346V83.4067H85.6373L87.5302 82.7184L89.079 81.5137L90.2836 80.1371L90.972 78.7604L91.3161 77.5558V75.4907L90.6278 73.2536L89.2511 71.3606L87.014 69.9839L85.121 69.4677H40.2064Z" fill="url(#paint0_linear_1_10261)"/>
<path d="M35.0438 29.0234H50.5315L51.392 29.8839V31.2606L50.7036 32.121H34.8717L34.0112 31.2606V29.7118L35.0438 29.0234Z" fill="url(#paint1_linear_1_10261)"/>
<path d="M34.8717 36.2578H50.7036L51.392 36.9462V38.3229L50.8757 39.1833L50.5315 39.3554H35.0438L34.0112 38.4949V36.9462L34.8717 36.2578Z" fill="url(#paint2_linear_1_10261)"/>
<path d="M34.8717 43.4844H50.7036L51.392 44.1727V45.5494L51.0478 46.2378L50.1874 46.5819H35.3879L34.5275 46.2378L34.0112 45.5494V44.1727L34.5275 43.6565L34.8717 43.4844Z" fill="url(#paint3_linear_1_10261)"/>
<path d="M35.0438 50.5391H47.6061L48.4665 51.0553L48.6386 51.3995V52.7762L47.7782 53.6366H34.8717L34.0112 52.7762V51.2274L35.0438 50.5391Z" fill="url(#paint4_linear_1_10261)"/>
<path d="M22.8059 42.2626C2.76471 46.2708 -28.1318 68.6042 61.7431 60.0133C139.618 52.5695 117.859 31.957 85.7926 36.5352" stroke="#B9B9B9"/>
<circle cx="5.41722" cy="59.8039" r="4.37035" fill="#B9B9B9"/>
<circle cx="72.9847" cy="58.6555" r="4.37035" fill="#B9B9B9"/>
<circle cx="101.615" cy="35.7571" r="4.37035" fill="#B9B9B9"/>
<defs>
<linearGradient id="paint0_linear_1_10261" x1="65.6752" y1="0.460937" x2="65.6752" y2="86.5043" gradientUnits="userSpaceOnUse">
<stop stop-color="#8AFDD6"/>
<stop offset="1" stop-color="#8E8CFE"/>
</linearGradient>
<linearGradient id="paint1_linear_1_10261" x1="42.7016" y1="29.0234" x2="42.7016" y2="32.121" gradientUnits="userSpaceOnUse">
<stop stop-color="#8AFDD6"/>
<stop offset="1" stop-color="#8E8CFE"/>
</linearGradient>
<linearGradient id="paint2_linear_1_10261" x1="42.7016" y1="36.2578" x2="42.7016" y2="39.3554" gradientUnits="userSpaceOnUse">
<stop stop-color="#8AFDD6"/>
<stop offset="1" stop-color="#8E8CFE"/>
</linearGradient>
<linearGradient id="paint3_linear_1_10261" x1="42.7016" y1="43.4844" x2="42.7016" y2="46.5819" gradientUnits="userSpaceOnUse">
<stop stop-color="#8AFDD6"/>
<stop offset="1" stop-color="#8E8CFE"/>
</linearGradient>
<linearGradient id="paint4_linear_1_10261" x1="41.3249" y1="50.5391" x2="41.3249" y2="53.6366" gradientUnits="userSpaceOnUse">
<stop stop-color="#8AFDD6"/>
<stop offset="1" stop-color="#8E8CFE"/>
</linearGradient>
</defs>
</svg>
