<svg width="110" height="111" viewBox="0 0 110 111" fill="none" xmlns="http://www.w3.org/2000/svg">
<mask id="mask0_1_10243" style="mask-type:alpha" maskUnits="userSpaceOnUse" x="0" y="0" width="110" height="111">
<rect y="0.460938" width="110" height="110" fill="#D9D9D9"/>
</mask>
<g mask="url(#mask0_1_10243)">
<path d="M92.3888 51.7522C92.3888 46.9153 89.9148 42.3943 85.8708 39.7157C85.8986 39.4153 85.9172 39.1119 85.9172 38.8053C85.9172 32.7576 81.9692 27.9207 76.6433 27.2116C75.5874 21.8545 70.8405 17.832 65.2947 17.832C60.9999 17.832 57.2408 20.1793 55.2312 23.6567C53.2216 20.1762 49.4625 17.832 45.1677 17.832C39.625 17.832 34.8812 21.8514 33.8253 27.2023C28.5303 27.8805 24.5483 32.7329 24.5483 38.8022C24.5483 39.1119 24.5669 39.4153 24.5947 39.7126C20.5476 42.3912 18.0767 46.9122 18.0767 51.7491C18.0767 54.6475 18.9468 57.422 20.6096 59.8436C18.9468 62.2651 18.0767 65.0397 18.0767 67.9381C18.0767 73.0227 20.7737 77.7079 25.1614 80.3307C27.0874 87.3228 33.367 92.1473 40.6685 92.1473C47.0906 92.1473 52.6487 88.3695 55.2343 82.9194C57.8229 88.3695 63.378 92.1473 69.8001 92.1473C77.0985 92.1473 83.3812 87.3228 85.3072 80.3307C89.6949 77.7079 92.3919 73.0227 92.3919 67.9381C92.3919 65.0397 91.5218 62.2651 89.859 59.8436C91.5218 57.422 92.3919 54.6475 92.3919 51.7491L92.3888 51.7522ZM40.6654 89.0538C34.5839 89.0538 29.3757 84.9044 28.007 78.9651C27.908 78.5285 27.6231 78.16 27.2298 77.9463C23.4924 75.9459 21.17 72.1092 21.17 67.9412C21.17 65.3648 22.0587 62.903 23.7401 60.8221C24.1984 60.2523 24.1984 59.4441 23.7401 58.8743C22.0587 56.7934 21.17 54.3316 21.17 51.7553C21.17 47.6801 23.415 43.8868 27.0286 41.8585C27.6045 41.5365 27.911 40.8831 27.7934 40.2359C27.7098 39.7714 27.6448 39.2977 27.6448 38.8084C27.6448 34.5877 30.4347 30.2246 35.1847 30.2246C35.9928 30.2246 36.6679 29.6022 36.7267 28.7971C37.0673 24.3906 40.78 20.9348 45.1708 20.9348C49.8681 20.9348 53.6861 24.7529 53.6861 29.4505V44.0788H45.7498C45.0593 41.4095 42.6317 39.4339 39.7519 39.4339C36.3365 39.4339 33.559 42.2116 33.559 45.6271C33.559 49.0426 36.3365 51.8203 39.7519 51.8203C42.6317 51.8203 45.0593 49.8447 45.7498 47.1754H53.6861V65.755H45.7498C45.0593 63.0857 42.6317 61.1101 39.7519 61.1101C36.3365 61.1101 33.559 63.8877 33.559 67.3033C33.559 70.7188 36.3365 73.4965 39.7519 73.4965C42.6317 73.4965 45.0593 71.5209 45.7498 68.8516H53.6861V76.0388C53.6861 83.2167 47.8461 89.06 40.6685 89.06L40.6654 89.0538ZM42.8453 45.6209C42.8453 47.3271 41.4581 48.7175 39.7489 48.7175C38.0396 48.7175 36.6524 47.3271 36.6524 45.6209C36.6524 43.9147 38.0396 42.5243 39.7489 42.5243C41.4581 42.5243 42.8453 43.9147 42.8453 45.6209ZM42.8453 67.2971C42.8453 69.0033 41.4581 70.3937 39.7489 70.3937C38.0396 70.3937 36.6524 69.0033 36.6524 67.2971C36.6524 65.5909 38.0396 64.2005 39.7489 64.2005C41.4581 64.2005 42.8453 65.5909 42.8453 67.2971ZM86.7223 60.819C88.4037 62.8999 89.2924 65.3617 89.2924 67.9381C89.2924 72.1092 86.97 75.9428 83.2326 77.9432C82.8393 78.1538 82.5545 78.5254 82.4554 78.962C81.0867 84.9013 75.8785 89.0507 69.797 89.0507C62.6194 89.0507 56.7794 83.2105 56.7794 76.0295V61.1008H64.5206C68.7906 61.1008 72.2618 57.6264 72.2618 53.3593V51.6159C74.9309 50.9254 76.9065 48.5007 76.9065 45.6178C76.9065 42.2023 74.129 39.4246 70.7136 39.4246C67.2981 39.4246 64.5206 42.2023 64.5206 45.6178C64.5206 48.4976 66.4962 50.9254 69.1653 51.6159V53.3593C69.1653 55.9202 67.0814 58.0042 64.5206 58.0042H56.7794V29.4443C56.7794 24.7467 60.5974 20.9286 65.2947 20.9286C69.6855 20.9286 73.3951 24.3813 73.7388 28.7909C73.8007 29.596 74.5532 30.2184 75.3583 30.2184C80.0277 30.2184 82.8176 34.5846 82.8176 38.8022C82.8176 39.2915 82.7526 39.7652 82.669 40.2297C82.5514 40.8769 82.861 41.5303 83.4338 41.8523C87.0474 43.8806 89.2924 47.674 89.2924 51.7491C89.2924 54.3254 88.4037 56.7872 86.7223 58.8682C86.264 59.4379 86.264 60.2461 86.7223 60.8159V60.819ZM70.7136 48.7175C69.0043 48.7175 67.6171 47.3271 67.6171 45.6209C67.6171 43.9147 69.0043 42.5243 70.7136 42.5243C72.4228 42.5243 73.81 43.9147 73.81 45.6209C73.81 47.3271 72.4228 48.7175 70.7136 48.7175Z" fill="url(#paint0_linear_1_10243)"/>
<path d="M18.0767 54.652C-1.33893 58.6692 -12.185 75.7396 60.9252 66.3665C134.035 56.9934 108.46 44.2747 91.3878 45.6132" stroke="#B9B9B9"/>
<circle cx="65.2769" cy="65.7018" r="3.68229" fill="#B9B9B9"/>
<circle cx="97.4132" cy="44.9479" r="3.68229" fill="#B9B9B9"/>
<circle cx="3.68229" cy="64.362" r="3.68229" fill="#B9B9B9"/>
</g>
<defs>
<linearGradient id="paint0_linear_1_10243" x1="55.2343" y1="17.832" x2="55.2343" y2="92.1473" gradientUnits="userSpaceOnUse">
<stop stop-color="#8AFDD6"/>
<stop offset="1" stop-color="#8E8CFE"/>
</linearGradient>
</defs>
</svg>
