<svg width="79" height="80" viewBox="0 0 79 80" fill="none" xmlns="http://www.w3.org/2000/svg">
<circle cx="39.5" cy="40.0391" r="38.5" stroke="url(#paint0_linear_4042_99)" stroke-width="2"/>
<path d="M16.0625 54.5391L17.4386 48.7384L17.6888 50.0867C17.2092 50.0867 16.8027 49.9299 16.4691 49.6163C16.1564 49.3028 16 48.8952 16 48.3935C16 47.8918 16.1564 47.4842 16.4691 47.1706C16.8027 46.8571 17.1988 46.7003 17.6575 46.7003C18.137 46.7003 18.5227 46.8675 18.8146 47.202C19.1273 47.5364 19.2837 47.9336 19.2837 48.3935C19.2837 48.5607 19.2733 48.7279 19.2524 48.8952C19.2316 49.0624 19.1899 49.2505 19.1273 49.4596C19.0648 49.6686 18.9814 49.9194 18.8771 50.2121L17.5637 54.5391H16.0625Z" fill="#A8FCE0"/>
<path d="M16.0625 54.5391L17.4386 48.7384L17.6888 50.0867C17.2092 50.0867 16.8027 49.9299 16.4691 49.6163C16.1564 49.3028 16 48.8952 16 48.3935C16 47.8918 16.1564 47.4842 16.4691 47.1706C16.8027 46.8571 17.1988 46.7003 17.6575 46.7003C18.137 46.7003 18.5227 46.8675 18.8146 47.202C19.1273 47.5364 19.2837 47.9336 19.2837 48.3935C19.2837 48.5607 19.2733 48.7279 19.2524 48.8952C19.2316 49.0624 19.1899 49.2505 19.1273 49.4596C19.0648 49.6686 18.9814 49.9194 18.8771 50.2121L17.5637 54.5391H16.0625Z" fill="url(#paint1_linear_4042_99)"/>
<path d="M27.6073 43.3767C27.6073 42.4987 27.7428 41.7462 28.0138 41.1191C28.3057 40.492 28.6601 39.9381 29.0771 39.4573C29.5149 38.9765 29.9736 38.5271 30.4531 38.1091C30.9535 37.691 31.4226 37.2729 31.8604 36.8549C32.2982 36.4159 32.6527 35.9456 32.9237 35.4439C33.1947 34.9213 33.3303 34.3151 33.3303 33.6253C33.3303 32.4965 32.8924 31.5768 32.0168 30.8661C31.1411 30.1553 29.9006 29.8 28.2953 29.8C26.9609 29.8 25.8038 30.0195 24.8239 30.4584C23.844 30.8765 23.0101 31.5036 22.3221 32.3397L20.6646 31.0855C21.4986 30.0404 22.5723 29.2356 23.8857 28.6712C25.1992 28.1068 26.7212 27.8246 28.4516 27.8246C29.911 27.8246 31.1724 28.0441 32.2357 28.4831C33.3198 28.922 34.1538 29.5491 34.7376 30.3644C35.3422 31.1796 35.6445 32.1516 35.6445 33.2804C35.6445 34.1792 35.4985 34.9526 35.2066 35.6007C34.9356 36.2278 34.5812 36.7921 34.1434 37.2938C33.7264 37.7746 33.2677 38.2345 32.7673 38.6734C32.2878 39.0915 31.8291 39.52 31.3913 39.959C30.9535 40.398 30.5991 40.8892 30.328 41.4327C30.057 41.9762 29.9215 42.6242 29.9215 43.3767H27.6073ZM28.7644 50.118C28.3265 50.118 27.9408 49.9612 27.6073 49.6477C27.2945 49.3132 27.1382 48.9265 27.1382 48.4875C27.1382 48.0277 27.2945 47.6514 27.6073 47.3588C27.9408 47.0452 28.3265 46.8884 28.7644 46.8884C29.2439 46.8884 29.64 47.0452 29.9527 47.3588C30.2655 47.6514 30.4218 48.0277 30.4218 48.4875C30.4218 48.9265 30.2655 49.3132 29.9527 49.6477C29.64 49.9612 29.2439 50.118 28.7644 50.118Z" fill="#A8FCE0"/>
<path d="M27.6073 43.3767C27.6073 42.4987 27.7428 41.7462 28.0138 41.1191C28.3057 40.492 28.6601 39.9381 29.0771 39.4573C29.5149 38.9765 29.9736 38.5271 30.4531 38.1091C30.9535 37.691 31.4226 37.2729 31.8604 36.8549C32.2982 36.4159 32.6527 35.9456 32.9237 35.4439C33.1947 34.9213 33.3303 34.3151 33.3303 33.6253C33.3303 32.4965 32.8924 31.5768 32.0168 30.8661C31.1411 30.1553 29.9006 29.8 28.2953 29.8C26.9609 29.8 25.8038 30.0195 24.8239 30.4584C23.844 30.8765 23.0101 31.5036 22.3221 32.3397L20.6646 31.0855C21.4986 30.0404 22.5723 29.2356 23.8857 28.6712C25.1992 28.1068 26.7212 27.8246 28.4516 27.8246C29.911 27.8246 31.1724 28.0441 32.2357 28.4831C33.3198 28.922 34.1538 29.5491 34.7376 30.3644C35.3422 31.1796 35.6445 32.1516 35.6445 33.2804C35.6445 34.1792 35.4985 34.9526 35.2066 35.6007C34.9356 36.2278 34.5812 36.7921 34.1434 37.2938C33.7264 37.7746 33.2677 38.2345 32.7673 38.6734C32.2878 39.0915 31.8291 39.52 31.3913 39.959C30.9535 40.398 30.5991 40.8892 30.328 41.4327C30.057 41.9762 29.9215 42.6242 29.9215 43.3767H27.6073ZM28.7644 50.118C28.3265 50.118 27.9408 49.9612 27.6073 49.6477C27.2945 49.3132 27.1382 48.9265 27.1382 48.4875C27.1382 48.0277 27.2945 47.6514 27.6073 47.3588C27.9408 47.0452 28.3265 46.8884 28.7644 46.8884C29.2439 46.8884 29.64 47.0452 29.9527 47.3588C30.2655 47.6514 30.4218 48.0277 30.4218 48.4875C30.4218 48.9265 30.2655 49.3132 29.9527 49.6477C29.64 49.9612 29.2439 50.118 28.7644 50.118Z" fill="url(#paint2_linear_4042_99)"/>
<path d="M40.6975 50.118C40.2389 50.118 39.8427 49.9508 39.5092 49.6163C39.1964 49.2819 39.0401 48.8743 39.0401 48.3935C39.0401 47.8918 39.1964 47.4842 39.5092 47.1706C39.8427 46.8571 40.2389 46.7003 40.6975 46.7003C41.1562 46.7003 41.5419 46.8571 41.8547 47.1706C42.1882 47.4842 42.355 47.8918 42.355 48.3935C42.355 48.8743 42.1882 49.2819 41.8547 49.6163C41.5419 49.9508 41.1562 50.118 40.6975 50.118Z" fill="#A8FCE0"/>
<path d="M40.6975 50.118C40.2389 50.118 39.8427 49.9508 39.5092 49.6163C39.1964 49.2819 39.0401 48.8743 39.0401 48.3935C39.0401 47.8918 39.1964 47.4842 39.5092 47.1706C39.8427 46.8571 40.2389 46.7003 40.6975 46.7003C41.1562 46.7003 41.5419 46.8571 41.8547 47.1706C42.1882 47.4842 42.355 47.8918 42.355 48.3935C42.355 48.8743 42.1882 49.2819 41.8547 49.6163C41.5419 49.9508 41.1562 50.118 40.6975 50.118Z" fill="url(#paint3_linear_4042_99)"/>
<path d="M46.1801 34.3465L47.5562 28.5771L47.8063 29.894C47.3268 29.894 46.9203 29.7477 46.5867 29.4551C46.274 29.1415 46.1176 28.7339 46.1176 28.2322C46.1176 27.7306 46.274 27.3229 46.5867 27.0094C46.9203 26.6958 47.3164 26.5391 47.7751 26.5391C48.2546 26.5391 48.6403 26.7063 48.9322 27.0407C49.2449 27.3543 49.4013 27.7515 49.4013 28.2322C49.4013 28.3995 49.3909 28.5667 49.37 28.7339C49.3492 28.9011 49.3075 29.0893 49.2449 29.2983C49.2032 29.4864 49.1302 29.7268 49.026 30.0195L47.6812 34.3465H46.1801ZM51.4966 34.3465L52.8726 28.5771L53.1228 29.894C52.6433 29.894 52.2367 29.7477 51.9031 29.4551C51.5904 29.1415 51.434 28.7339 51.434 28.2322C51.434 27.7306 51.5904 27.3229 51.9031 27.0094C52.2367 26.6958 52.6328 26.5391 53.0915 26.5391C53.571 26.5391 53.9567 26.7063 54.2486 27.0407C54.5614 27.3543 54.7177 27.7515 54.7177 28.2322C54.7177 28.3995 54.7073 28.5667 54.6865 28.7339C54.6656 28.9011 54.6239 29.0893 54.5614 29.2983C54.5197 29.4864 54.4467 29.7268 54.3424 30.0195L52.9977 34.3465H51.4966Z" fill="#A8FCE0"/>
<path d="M46.1801 34.3465L47.5562 28.5771L47.8063 29.894C47.3268 29.894 46.9203 29.7477 46.5867 29.4551C46.274 29.1415 46.1176 28.7339 46.1176 28.2322C46.1176 27.7306 46.274 27.3229 46.5867 27.0094C46.9203 26.6958 47.3164 26.5391 47.7751 26.5391C48.2546 26.5391 48.6403 26.7063 48.9322 27.0407C49.2449 27.3543 49.4013 27.7515 49.4013 28.2322C49.4013 28.3995 49.3909 28.5667 49.37 28.7339C49.3492 28.9011 49.3075 29.0893 49.2449 29.2983C49.2032 29.4864 49.1302 29.7268 49.026 30.0195L47.6812 34.3465H46.1801ZM51.4966 34.3465L52.8726 28.5771L53.1228 29.894C52.6433 29.894 52.2367 29.7477 51.9031 29.4551C51.5904 29.1415 51.434 28.7339 51.434 28.2322C51.434 27.7306 51.5904 27.3229 51.9031 27.0094C52.2367 26.6958 52.6328 26.5391 53.0915 26.5391C53.571 26.5391 53.9567 26.7063 54.2486 27.0407C54.5614 27.3543 54.7177 27.7515 54.7177 28.2322C54.7177 28.3995 54.7073 28.5667 54.6865 28.7339C54.6656 28.9011 54.6239 29.0893 54.5614 29.2983C54.5197 29.4864 54.4467 29.7268 54.3424 30.0195L52.9977 34.3465H51.4966Z" fill="url(#paint4_linear_4042_99)"/>
<path d="M60.4981 43.3767L60.0603 28.0127H62.6873L62.2182 43.3767H60.4981ZM61.3738 50.118C60.9151 50.118 60.519 49.9612 60.1854 49.6477C59.8727 49.3132 59.7163 48.9265 59.7163 48.4875C59.7163 48.0277 59.8727 47.6514 60.1854 47.3588C60.519 47.0452 60.9151 46.8884 61.3738 46.8884C61.8533 46.8884 62.239 47.0452 62.5309 47.3588C62.8436 47.6514 63 48.0277 63 48.4875C63 48.9265 62.8436 49.3132 62.5309 49.6477C62.239 49.9612 61.8533 50.118 61.3738 50.118Z" fill="#A8FCE0"/>
<path d="M60.4981 43.3767L60.0603 28.0127H62.6873L62.2182 43.3767H60.4981ZM61.3738 50.118C60.9151 50.118 60.519 49.9612 60.1854 49.6477C59.8727 49.3132 59.7163 48.9265 59.7163 48.4875C59.7163 48.0277 59.8727 47.6514 60.1854 47.3588C60.519 47.0452 60.9151 46.8884 61.3738 46.8884C61.8533 46.8884 62.239 47.0452 62.5309 47.3588C62.8436 47.6514 63 48.0277 63 48.4875C63 48.9265 62.8436 49.3132 62.5309 49.6477C62.239 49.9612 61.8533 50.118 61.3738 50.118Z" fill="url(#paint5_linear_4042_99)"/>
<defs>
<linearGradient id="paint0_linear_4042_99" x1="39.5" y1="0.539062" x2="39.5" y2="79.5391" gradientUnits="userSpaceOnUse">
<stop stop-color="#8AFDD6"/>
<stop offset="1" stop-color="#8E8CFE"/>
</linearGradient>
<linearGradient id="paint1_linear_4042_99" x1="39.5" y1="26.5391" x2="39.5" y2="54.5391" gradientUnits="userSpaceOnUse">
<stop stop-color="#8AFDD6"/>
<stop offset="1" stop-color="#8E8CFE"/>
</linearGradient>
<linearGradient id="paint2_linear_4042_99" x1="39.5" y1="26.5391" x2="39.5" y2="54.5391" gradientUnits="userSpaceOnUse">
<stop stop-color="#8AFDD6"/>
<stop offset="1" stop-color="#8E8CFE"/>
</linearGradient>
<linearGradient id="paint3_linear_4042_99" x1="39.5" y1="26.5391" x2="39.5" y2="54.5391" gradientUnits="userSpaceOnUse">
<stop stop-color="#8AFDD6"/>
<stop offset="1" stop-color="#8E8CFE"/>
</linearGradient>
<linearGradient id="paint4_linear_4042_99" x1="39.5" y1="26.5391" x2="39.5" y2="54.5391" gradientUnits="userSpaceOnUse">
<stop stop-color="#8AFDD6"/>
<stop offset="1" stop-color="#8E8CFE"/>
</linearGradient>
<linearGradient id="paint5_linear_4042_99" x1="39.5" y1="26.5391" x2="39.5" y2="54.5391" gradientUnits="userSpaceOnUse">
<stop stop-color="#8AFDD6"/>
<stop offset="1" stop-color="#8E8CFE"/>
</linearGradient>
</defs>
</svg>
